<svg width="68" height="68" viewBox="0 0 68 68" fill="none" xmlns="http://www.w3.org/2000/svg">
<path d="M34.2 0.199997C15.5 0.199997 0.400024 15.4 0.400024 34C0.400024 52.7 15.6 67.8 34.2 67.8C52.9 67.8 68 52.6 68 34C68 15.3 52.9 0.199997 34.2 0.199997ZM24.6 51.6H17.2V51.4V28H24.6V51.6ZM20.9 25C18.5 25 16.6 23.1 16.6 20.7C16.6 18.3 18.5 16.4 20.9 16.4C23.3 16.4 25.2 18.3 25.2 20.7C25.2 23.1 23.3 25 20.9 25ZM51.7 51.6H44.6V38.1C44.6 38.1 44.6 33.6 40.4 34C39 34.1 37.7 34.9 37.1 36.2C36.9 36.5 36.8 36.9 36.7 37.3C36.6 37.6 36.6 37.9 36.6 38.2V51.6H29V28H36.2V31.5C36.2 31.5 38.4 25.8 46.8 28C46.8 28 51.7 29.5 51.7 36V51.6Z" fill="black"/>
</svg>
