<?xml version="1.0" encoding="utf-8"?>
<!-- Generator: Adobe Illustrator 21.0.0, SVG Export Plug-In . SVG Version: 6.00 Build 0)  -->
<svg version="1.1" id="Layer_1" xmlns="http://www.w3.org/2000/svg" xmlns:xlink="http://www.w3.org/1999/xlink" x="0px" y="0px"
	 viewBox="0 0 841.9 595.3" style="enable-background:new 0 0 841.9 595.3;" xml:space="preserve">
<style type="text/css">
	.st0{fill:none;stroke:#000000;stroke-width:1.2182;stroke-miterlimit:10;}
</style>
<g>
	<g>
		<path d="M447,305.8L447,305.8c-11.5,0-20.8-9.3-20.8-20.8V139.4c0-11.5,9.3-20.8,20.8-20.8h0c11.5,0,20.8,9.3,20.8,20.8V285
			C467.7,296.5,458.4,305.8,447,305.8z"/>
	</g>
	<g>
		<path d="M499,305.7L499,305.7c-11.5,0-20.8-9.3-20.8-20.8V222c0-11.5,9.3-20.8,20.8-20.8h0c11.5,0,20.8,9.3,20.8,20.8v62.9
			C519.8,296.4,510.5,305.7,499,305.7z"/>
	</g>
</g>
<g>
	<g>
		<path d="M342.9,223.1L342.9,223.1c-11.5,0-20.8-9.3-20.8-20.8v-20.9c0-11.5,9.3-20.8,20.8-20.8h0c11.5,0,20.8,9.3,20.8,20.8v20.9
			C363.7,213.8,354.4,223.1,342.9,223.1z"/>
	</g>
	<g>
		<path d="M394.9,223.2L394.9,223.2c-11.5,0-20.8-9.3-20.8-20.8v-63c0-11.5,9.3-20.8,20.8-20.8h0c11.5,0,20.8,9.3,20.8,20.8v63
			C415.7,213.9,406.4,223.2,394.9,223.2z"/>
	</g>
</g>
<path class="st0" d="M353.2,425.6h-20.5c-5.8,0-10.5-4.7-10.5-10.5v0c0-5.8,4.7-10.5,10.5-10.5h20.5c5.8,0,10.5,4.7,10.5,10.5v0
	C363.7,420.9,359,425.6,353.2,425.6z"/>
<g>
	<g>
		<path d="M342.9,393.4L342.9,393.4c-11.5,0-20.8-9.3-20.8-20.8v-63c0-11.5,9.3-20.8,20.8-20.8h0c11.5,0,20.8,9.3,20.8,20.8v63
			C363.7,384.1,354.4,393.4,342.9,393.4z"/>
	</g>
	<g>
		<path d="M405.2,393.4h-20.5c-5.8,0-10.5-4.7-10.5-10.5v0c0-5.8,4.7-10.5,10.5-10.5h20.5c5.8,0,10.5,4.7,10.5,10.5v0
			C415.7,388.7,411,393.4,405.2,393.4z"/>
	</g>
	<g>
		<path d="M342.9,268.6L342.9,268.6c-11.5,0-20.8-9.3-20.8-20.8v0c0-11.5,9.3-20.8,20.8-20.8h0c11.5,0,20.8,9.3,20.8,20.8v0
			C363.7,259.3,354.4,268.6,342.9,268.6z"/>
	</g>
	<g>
		<path d="M394.9,330.6L394.9,330.6c-11.5,0-20.8-9.3-20.8-20.8v-62c0-11.5,9.3-20.8,20.8-20.8h0c11.5,0,20.8,9.3,20.8,20.8v62
			C415.7,321.3,406.4,330.6,394.9,330.6z"/>
	</g>
</g>
<g>
	<path d="M447,475.9L447,475.9c-11.5,0-20.8-9.3-20.8-20.8V330.3c0-11.5,9.3-20.8,20.8-20.8h0c11.5,0,20.8,9.3,20.8,20.8v124.8
		C467.7,466.6,458.4,475.9,447,475.9z"/>
</g>
<path class="st0" d="M395.2,399.7L395.2,399.7c11.3,0,20.5,9.2,20.5,20.5v37.1c0,11.3-9.2,20.5-20.5,20.5h0
	c-11.3,0-20.5-9.2-20.5-20.5v-37.1C374.7,408.9,383.9,399.7,395.2,399.7z"/>
<path class="st0" d="M342.9,436.8L342.9,436.8c11.3,0,20.5,9.2,20.5,20.5v0c0,11.3-9.2,20.5-20.5,20.5h0c-11.3,0-20.5-9.2-20.5-20.5
	v0C322.4,445.9,331.6,436.8,342.9,436.8z"/>
<path class="st0" d="M499,477.8L499,477.8c-11.5,0-20.8-9.3-20.8-20.8V332.3c0-11.5,9.3-20.8,20.8-20.8h0c11.5,0,20.8,9.3,20.8,20.8
	V457C519.8,468.5,510.5,477.8,499,477.8z"/>
<path class="st0" d="M499,189.6L499,189.6c-11.5,0-20.8-9.3-20.8-20.8v-29c0-11.5,9.3-20.8,20.8-20.8h0c11.5,0,20.8,9.3,20.8,20.8
	v29C519.8,180.3,510.5,189.6,499,189.6z"/>
<path class="st0" d="M346.1,154.4h-6.5c-9.7,0-17.5-7.8-17.5-17.5v0c0-9.7,7.8-17.5,17.5-17.5h6.5c9.7,0,17.5,7.8,17.5,17.5v0
	C363.7,146.5,355.8,154.4,346.1,154.4z"/>
</svg>
