<svg width="842" height="596" viewBox="0 0 842 596" fill="none" xmlns="http://www.w3.org/2000/svg">
<g id="AH 2021 Mini logo (1) 1">
<g id="ltr-h">
<g id="Group">
<path id="Vector" d="M447 305.8C435.5 305.8 426.2 296.5 426.2 285V139.4C426.2 127.9 435.5 118.6 447 118.6C458.5 118.6 467.8 127.9 467.8 139.4V285C467.7 296.5 458.4 305.8 447 305.8Z" fill="black"/>
</g>
<g id="Group_2">
<path id="Vector_2" d="M499 305.7C487.5 305.7 478.2 296.4 478.2 284.9V222C478.2 210.5 487.5 201.2 499 201.2C510.5 201.2 519.8 210.5 519.8 222V284.9C519.8 296.4 510.5 305.7 499 305.7Z" fill="black"/>
</g>
</g>
<g id="ltr-a">
<g id="Group_3">
<path id="Vector_3" d="M342.9 223.1C331.4 223.1 322.1 213.8 322.1 202.3V181.4C322.1 169.9 331.4 160.6 342.9 160.6C354.4 160.6 363.7 169.9 363.7 181.4V202.3C363.7 213.8 354.4 223.1 342.9 223.1Z" fill="black"/>
</g>
<g id="Group_4">
<path id="Vector_4" d="M394.9 223.2C383.4 223.2 374.1 213.9 374.1 202.4V139.4C374.1 127.9 383.4 118.6 394.9 118.6C406.4 118.6 415.7 127.9 415.7 139.4V202.4C415.7 213.9 406.4 223.2 394.9 223.2Z" fill="black"/>
</g>
</g>
<g id="nr-2">
<g id="Group_5">
<path id="Vector_5" d="M342.9 393.4C331.4 393.4 322.1 384.1 322.1 372.6V309.6C322.1 298.1 331.4 288.8 342.9 288.8C354.4 288.8 363.7 298.1 363.7 309.6V372.6C363.7 384.1 354.4 393.4 342.9 393.4Z" fill="black"/>
</g>
<g id="Group_6">
<path id="Vector_6" d="M405.2 393.4H384.7C378.9 393.4 374.2 388.7 374.2 382.9C374.2 377.1 378.9 372.4 384.7 372.4H405.2C411 372.4 415.7 377.1 415.7 382.9C415.7 388.7 411 393.4 405.2 393.4Z" fill="black"/>
</g>
<g id="Group_7">
<path id="Vector_7" d="M342.9 268.6C331.4 268.6 322.1 259.3 322.1 247.8C322.1 236.3 331.4 227 342.9 227C354.4 227 363.7 236.3 363.7 247.8C363.7 259.3 354.4 268.6 342.9 268.6Z" fill="black"/>
</g>
<g id="Group_8">
<path id="Vector_8" d="M394.9 330.6C383.4 330.6 374.1 321.3 374.1 309.8V247.8C374.1 236.3 383.4 227 394.9 227C406.4 227 415.7 236.3 415.7 247.8V309.8C415.7 321.3 406.4 330.6 394.9 330.6Z" fill="black"/>
</g>
</g>
<g id="nr-1">
<path id="Vector_9" d="M447 475.9C435.5 475.9 426.2 466.6 426.2 455.1V330.3C426.2 318.8 435.5 309.5 447 309.5C458.5 309.5 467.8 318.8 467.8 330.3V455.1C467.7 466.6 458.4 475.9 447 475.9Z" fill="black"/>
</g>
<path id="bg6" d="M353.2 425.6H332.7C326.9 425.6 322.2 420.9 322.2 415.1C322.2 409.3 326.9 404.6 332.7 404.6H353.2C359 404.6 363.7 409.3 363.7 415.1C363.7 420.9 359 425.6 353.2 425.6Z" stroke="black" stroke-width="1.2182" stroke-miterlimit="10"/>
<path id="bg5" d="M395.2 399.7C406.5 399.7 415.7 408.9 415.7 420.2V457.3C415.7 468.6 406.5 477.8 395.2 477.8C383.9 477.8 374.7 468.6 374.7 457.3V420.2C374.7 408.9 383.9 399.7 395.2 399.7Z" stroke="black" stroke-width="1.2182" stroke-miterlimit="10"/>
<path id="bg4" d="M342.9 436.8C354.2 436.8 363.4 446 363.4 457.3C363.4 468.6 354.2 477.8 342.9 477.8C331.6 477.8 322.4 468.6 322.4 457.3C322.4 445.9 331.6 436.8 342.9 436.8Z" stroke="black" stroke-width="1.2182" stroke-miterlimit="10"/>
<path id="bg3" d="M499 477.8C487.5 477.8 478.2 468.5 478.2 457V332.3C478.2 320.8 487.5 311.5 499 311.5C510.5 311.5 519.8 320.8 519.8 332.3V457C519.8 468.5 510.5 477.8 499 477.8Z" stroke="black" stroke-width="1.2182" stroke-miterlimit="10"/>
<path id="bg2" d="M499 189.6C487.5 189.6 478.2 180.3 478.2 168.8V139.8C478.2 128.3 487.5 119 499 119C510.5 119 519.8 128.3 519.8 139.8V168.8C519.8 180.3 510.5 189.6 499 189.6Z" stroke="black" stroke-width="1.2182" stroke-miterlimit="10"/>
<path id="bg1" d="M346.1 154.4H339.6C329.9 154.4 322.1 146.6 322.1 136.9C322.1 127.2 329.9 119.4 339.6 119.4H346.1C355.8 119.4 363.6 127.2 363.6 136.9C363.7 146.5 355.8 154.4 346.1 154.4Z" stroke="black" stroke-width="1.2182" stroke-miterlimit="10"/>
</g>
</svg>
