<?xml version="1.0" encoding="UTF-8" standalone="no"?>
<!DOCTYPE svg PUBLIC "-//W3C//DTD SVG 1.1//EN" "http://www.w3.org/Graphics/SVG/1.1/DTD/svg11.dtd"><svg width="100%"
    height="100%" viewBox="0 0 5334 3334" version="1.1" xmlns="http://www.w3.org/2000/svg"
    xmlns:xlink="http://www.w3.org/1999/xlink" xml:space="preserve" xmlns:serif="http://www.serif.com/"
    style="fill-rule:evenodd;clip-rule:evenodd;stroke-linecap:round;stroke-linejoin:round;stroke-miterlimit:1.5;">
    <path d="M2236.64,1664.86c292.578,-1322.82 579.333,-1304.07 860.129,0.376"
        style="fill:none;stroke:white;stroke-width:12.5px;" />
    <path d="M1579.72,1666.58c220.892,-784.532 437.387,-773.41 649.384,0.223"
        style="fill:none;stroke:white;stroke-width:12.5px;" />
    <path d="M1116.13,1669.11c155.981,-449.356 308.858,-442.986 458.558,0.128"
        style="fill:none;stroke:white;stroke-width:12.5px;" />
    <path d="M3761.18,1663.89c155.981,-449.357 308.858,-442.986 458.557,0.127"
        style="fill:none;stroke:white;stroke-width:12.5px;" />
    <path d="M3104.06,1659.93c220.892,-784.532 437.387,-773.41 649.384,0.223"
        style="fill:none;stroke:white;stroke-width:12.5px;" />
    <path d="M3097.57,1667.39c-290.272,1323.33 -577.059,1305.07 -860.128,1.123"
        style="fill:none;stroke:white;stroke-width:12.5px;" />
    <path d="M2229.71,1668.08c-219.151,784.833 -435.671,774.007 -649.384,0.666"
        style="fill:none;stroke:white;stroke-width:12.5px;" />
    <path d="M1575.12,1669.97c-154.752,449.529 -307.645,443.328 -458.557,0.381"
        style="fill:none;stroke:white;stroke-width:12.5px;" />
    <path d="M4220.16,1664.75c-154.752,449.529 -307.646,443.329 -458.557,0.382"
        style="fill:none;stroke:white;stroke-width:12.5px;" />
    <path d="M3754.05,1661.43c-219.151,784.833 -435.671,774.007 -649.384,0.666"
        style="fill:none;stroke:white;stroke-width:12.5px;" />
    <path d="M2518.83,2535.41l-0.022,-1729.49" style="fill:none;stroke:white;stroke-width:12.5px;" />
    <path d="M1792.76,2182.88l-0.016,-1025.72" style="fill:none;stroke:white;stroke-width:12.5px;" />
    <path d="M1266.57,1964.84l-0.011,-587.5" style="fill:none;stroke:white;stroke-width:12.5px;" />
    <path d="M3911.62,1959.62l-0.012,-587.499" style="fill:none;stroke:white;stroke-width:12.5px;" />
    <path d="M3317.11,2176.23l-0.016,-1025.71" style="fill:none;stroke:white;stroke-width:12.5px;" />
    <path d="M2814.59,797.721l0.051,1735" style="fill:none;stroke:white;stroke-width:12.5px;" />
    <path d="M2016.06,1152.3l0.038,1028.99" style="fill:none;stroke:white;stroke-width:12.5px;" />
    <path d="M1424.25,1374.55l0.028,589.372" style="fill:none;stroke:white;stroke-width:12.5px;" />
    <path d="M4069.3,1369.33l0.028,589.372" style="fill:none;stroke:white;stroke-width:12.5px;" />
    <path d="M3540.41,1145.65l0.039,1028.99" style="fill:none;stroke:white;stroke-width:12.5px;" />
    <path d="M2364.14,2159.94l0.513,-986.978" style="fill:none;stroke:white;stroke-width:12.5px;" />
    <path d="M1675.98,1960.2l0.387,-585.352" style="fill:none;stroke:white;stroke-width:12.5px;" />
    <path d="M1184.11,1837.29l0.273,-335.273" style="fill:none;stroke:white;stroke-width:12.5px;" />
    <path d="M3829.15,1832.07l0.274,-335.272" style="fill:none;stroke:white;stroke-width:12.5px;" />
    <path d="M3200.32,1953.55l0.387,-585.353" style="fill:none;stroke:white;stroke-width:12.5px;" />
    <path d="M2968.68,1165.19l-0.028,995.368" style="fill:none;stroke:white;stroke-width:12.5px;" />
    <path d="M2132.39,1370.23l-0.02,590.329" style="fill:none;stroke:white;stroke-width:12.5px;" />
    <path d="M1506.4,1499.38l-0.014,338.122" style="fill:none;stroke:white;stroke-width:12.5px;" />
    <path d="M4151.44,1494.15l-0.014,338.123" style="fill:none;stroke:white;stroke-width:12.5px;" />
    <path d="M3656.74,1363.58l-0.021,590.329" style="fill:none;stroke:white;stroke-width:12.5px;" />
    <path d="M837.452,1666.4l3658.3,0.031" style="fill:none;stroke:white;stroke-width:8.33px;" /><text x="1607.94px"
        y="2999.21px" style="font-family:'Futura-Medium', 'Futura', sans-serif;font-weight:500;font-size:200px;">AAL
        <tspan x="1983.14px 2074.84px 2253.55px " y="2999.21px 2999.21px 2999.21px ">TO-</tspan>HEL<tspan
            x="2646.13px 2762.73px " y="2999.21px 2999.21px ">SI</tspan>NKI 2020</text></svg>