<?xml version="1.0" encoding="UTF-8" standalone="no"?>
<!DOCTYPE svg PUBLIC "-//W3C//DTD SVG 1.1//EN" "http://www.w3.org/Graphics/SVG/1.1/DTD/svg11.dtd"><svg width="100%"
    height="100%" viewBox="0 0 818 800" version="1.1" xmlns="http://www.w3.org/2000/svg"
    xmlns:xlink="http://www.w3.org/1999/xlink" xml:space="preserve" xmlns:serif="http://www.serif.com/"
    style="fill-rule:evenodd;clip-rule:evenodd;stroke-linecap:round;stroke-linejoin:round;stroke-miterlimit:1.5;">
    <path d="M312.394,402.583c65.696,-305.852 130.085,-301.516 193.136,0.087"
        style="fill:none;stroke:#000;stroke-width:3px;" />
    <path d="M164.886,402.98c49.6,-181.393 98.212,-178.821 145.815,0.052"
        style="fill:none;stroke:#000;stroke-width:3px;" />
    <path d="M60.791,403.566c35.024,-103.896 69.352,-102.423 102.966,0.03"
        style="fill:none;stroke:#000;stroke-width:3px;" />
    <path d="M654.717,402.36c35.025,-103.897 69.352,-102.424 102.966,0.029"
        style="fill:none;stroke:#000;stroke-width:3px;" />
    <path d="M507.167,401.443c49.599,-181.393 98.212,-178.822 145.814,0.051"
        style="fill:none;stroke:#000;stroke-width:3px;" />
    <path d="M505.709,403.169c-65.178,305.969 -129.574,301.748 -193.135,0.259"
        style="fill:none;stroke:#000;stroke-width:3px;" />
    <path d="M310.836,403.328c-49.209,181.463 -97.827,178.96 -145.814,0.154"
        style="fill:none;stroke:#000;stroke-width:3px;" />
    <path d="M163.853,403.765c-34.749,103.937 -69.08,102.503 -102.966,0.089"
        style="fill:none;stroke:#000;stroke-width:3px;" />
    <path d="M757.779,402.559c-34.749,103.936 -69.08,102.502 -102.966,0.088"
        style="fill:none;stroke:#000;stroke-width:3px;" />
    <path d="M653.117,401.79c-49.209,181.463 -97.827,178.96 -145.815,0.154"
        style="fill:none;stroke:#000;stroke-width:3px;" />
    <path d="M375.756,603.865l-0.005,-399.878" style="fill:none;stroke:#000;stroke-width:3px;" />
    <path d="M212.723,522.356l-0.003,-237.158" style="fill:none;stroke:#000;stroke-width:3px;" />
    <path d="M94.571,471.941l-0.003,-135.837" style="fill:none;stroke:#000;stroke-width:3px;" />
    <path d="M688.497,470.734l-0.002,-135.836" style="fill:none;stroke:#000;stroke-width:3px;" />
    <path d="M555.004,520.818l-0.004,-237.157" style="fill:none;stroke:#000;stroke-width:3px;" />
    <path d="M442.168,202.091l0.012,401.152" style="fill:none;stroke:#000;stroke-width:3px;" />
    <path d="M262.864,284.073l0.008,237.914" style="fill:none;stroke:#000;stroke-width:3px;" />
    <path d="M129.977,335.46l0.006,136.27" style="fill:none;stroke:#000;stroke-width:3px;" />
    <path d="M723.903,334.253l0.007,136.27" style="fill:none;stroke:#000;stroke-width:3px;" />
    <path d="M605.144,282.536l0.009,237.913" style="fill:none;stroke:#000;stroke-width:3px;" />
    <path d="M341.022,517.052l0.115,-228.201" style="fill:none;stroke:#000;stroke-width:3px;" />
    <path d="M186.5,470.869l0.087,-135.34" style="fill:none;stroke:#000;stroke-width:3px;" />
    <path d="M76.053,442.451l0.062,-77.519" style="fill:none;stroke:#000;stroke-width:3px;" />
    <path d="M669.98,441.244l0.061,-77.519" style="fill:none;stroke:#000;stroke-width:3px;" />
    <path d="M528.78,469.332l0.087,-135.341" style="fill:none;stroke:#000;stroke-width:3px;" />
    <path d="M476.767,287.053l-0.006,230.141" style="fill:none;stroke:#000;stroke-width:3px;" />
    <path d="M288.985,334.462l-0.005,136.491" style="fill:none;stroke:#000;stroke-width:3px;" />
    <path d="M148.423,364.321l-0.004,78.178" style="fill:none;stroke:#000;stroke-width:3px;" />
    <path d="M742.349,363.115l-0.004,78.177" style="fill:none;stroke:#000;stroke-width:3px;" />
    <path d="M631.266,332.925l-0.005,136.491" style="fill:none;stroke:#000;stroke-width:3px;" />
    <path d="M-1.785,402.94l821.445,0.007" style="fill:none;stroke:#000;stroke-width:2px;" /></svg>