                    <svg id="logo" width="426" height="106" viewBox="0 0 426 106" fill="none"
                        xmlns="http://www.w3.org/2000/svg">
                        <path
                            d="M22.0767 26.5601H7.48472L4.79672 34.0001H0.188721L12.2847 0.736061H17.3247L29.3727 34.0001H24.7647L22.0767 26.5601ZM20.8287 23.0081L14.7807 6.11206L8.73272 23.0081H20.8287Z"
                            stroke="black" stroke-width="1" />
                        <path
                            d="M59.2205 26.5601H44.6285L41.9405 34.0001H37.3325L49.4285 0.736061H54.4685L66.5165 34.0001H61.9085L59.2205 26.5601ZM57.9725 23.0081L51.9245 6.11206L45.8765 23.0081H57.9725Z"
                            stroke="black" stroke-width="1" />
                        <path d="M80.9562 30.4481H92.6682V34.0001H76.5882V0.54406H80.9562V30.4481Z" stroke="black"
                            stroke-width="1" />
                        <path d="M122.699 0.54406V4.09606H113.579V34.0001H109.211V4.09606H100.043V0.54406H122.699Z"
                            stroke="black" stroke-width="1" />
                        <path
                            d="M148.044 34.3361C144.94 34.3361 142.108 33.6161 139.548 32.1761C136.988 30.7041 134.956 28.6721 133.452 26.0801C131.98 23.4561 131.244 20.5121 131.244 17.2481C131.244 13.9841 131.98 11.0561 133.452 8.46406C134.956 5.84006 136.988 3.80806 139.548 2.36806C142.108 0.896059 144.94 0.160059 148.044 0.160059C151.18 0.160059 154.028 0.896059 156.588 2.36806C159.148 3.80806 161.164 5.82406 162.636 8.41606C164.108 11.0081 164.844 13.9521 164.844 17.2481C164.844 20.5441 164.108 23.4881 162.636 26.0801C161.164 28.6721 159.148 30.7041 156.588 32.1761C154.028 33.6161 151.18 34.3361 148.044 34.3361ZM148.044 30.5441C150.38 30.5441 152.476 30.0001 154.332 28.9121C156.22 27.8241 157.692 26.2721 158.748 24.2561C159.836 22.2401 160.38 19.9041 160.38 17.2481C160.38 14.5601 159.836 12.2241 158.748 10.2401C157.692 8.22406 156.236 6.67206 154.38 5.58406C152.524 4.49606 150.412 3.95206 148.044 3.95206C145.676 3.95206 143.564 4.49606 141.708 5.58406C139.852 6.67206 138.38 8.22406 137.292 10.2401C136.236 12.2241 135.708 14.5601 135.708 17.2481C135.708 19.9041 136.236 22.2401 137.292 24.2561C138.38 26.2721 139.852 27.8241 141.708 28.9121C143.596 30.0001 145.708 30.5441 148.044 30.5441Z"
                            stroke="black" stroke-width="1" />
                        <path d="M193.65 14.5601V18.2561H174.498V14.5601H193.65Z" stroke="black" stroke-width="1" />
                        <path
                            d="M232.424 0.54406V34.0001H228.056V18.8321H211.016V34.0001H206.648V0.54406H211.016V15.2321H228.056V0.54406H232.424Z"
                            stroke="black" stroke-width="1" />
                        <path
                            d="M249.05 4.09606V15.2801H261.242V18.8801H249.05V30.4001H262.682V34.0001H244.682V0.496059H262.682V4.09606H249.05Z"
                            stroke="black" stroke-width="1" />
                        <path d="M278.459 30.4481H290.171V34.0001H274.091V0.54406H278.459V30.4481Z" stroke="black"
                            stroke-width="1" />
                        <path
                            d="M310.218 34.3361C308.01 34.3361 306.026 33.9521 304.266 33.1841C302.538 32.3841 301.178 31.2961 300.186 29.9201C299.194 28.5121 298.682 26.8961 298.65 25.0721H303.306C303.466 26.6401 304.106 27.9681 305.226 29.0561C306.378 30.1121 308.042 30.6401 310.218 30.6401C312.298 30.6401 313.93 30.1281 315.114 29.1041C316.33 28.0481 316.938 26.7041 316.938 25.0721C316.938 23.7921 316.586 22.7521 315.882 21.9521C315.178 21.1521 314.298 20.5441 313.242 20.1281C312.186 19.7121 310.762 19.2641 308.97 18.7841C306.762 18.2081 304.986 17.6321 303.642 17.0561C302.33 16.4801 301.194 15.5841 300.234 14.3681C299.306 13.1201 298.842 11.4561 298.842 9.37606C298.842 7.55206 299.306 5.93606 300.234 4.52806C301.162 3.12006 302.458 2.03206 304.122 1.26406C305.818 0.496059 307.754 0.112061 309.93 0.112061C313.066 0.112061 315.626 0.896061 317.61 2.46406C319.626 4.03206 320.762 6.11206 321.018 8.70406H316.218C316.058 7.42406 315.386 6.30406 314.202 5.34406C313.018 4.35206 311.45 3.85606 309.498 3.85606C307.674 3.85606 306.186 4.33606 305.034 5.29606C303.882 6.22406 303.306 7.53606 303.306 9.23206C303.306 10.4481 303.642 11.4401 304.314 12.2081C305.018 12.9761 305.866 13.5681 306.858 13.9841C307.882 14.3681 309.306 14.8161 311.13 15.3281C313.338 15.9361 315.114 16.5441 316.458 17.1521C317.802 17.7281 318.954 18.6401 319.914 19.8881C320.874 21.1041 321.354 22.7681 321.354 24.8801C321.354 26.5121 320.922 28.0481 320.058 29.4881C319.194 30.9281 317.914 32.0961 316.218 32.9921C314.522 33.8881 312.522 34.3361 310.218 34.3361Z"
                            stroke="black" stroke-width="1" />
                        <path d="M336.95 0.54406V34.0001H332.582V0.54406H336.95Z" stroke="black" stroke-width="1" />
                        <path
                            d="M375.498 34.0001H371.13L353.562 7.36006V34.0001H349.194V0.496059H353.562L371.13 27.0881V0.496059H375.498V34.0001Z"
                            stroke="black" stroke-width="1" />
                        <path
                            d="M405.888 34.0001L392.112 18.7361V34.0001H387.745V0.54406H392.112V16.0481L405.936 0.54406H411.456L396.288 17.2961L411.6 34.0001H405.888Z"
                            stroke="black" stroke-width="1" />
                        <path d="M425.647 0.54406V34.0001H421.279V0.54406H425.647Z" stroke="black" stroke-width="1" />
                        <path
                            d="M151.498 102.496C155.562 99.2321 158.746 96.5601 161.05 94.4801C163.354 92.3681 165.29 90.1761 166.858 87.9041C168.458 85.6001 169.258 83.3441 169.258 81.1361C169.258 79.0561 168.746 77.4241 167.722 76.2401C166.73 75.0241 165.114 74.4161 162.874 74.4161C160.698 74.4161 159.002 75.1041 157.786 76.4801C156.602 77.8241 155.962 79.6321 155.866 81.9041H151.642C151.77 78.3201 152.858 75.5521 154.906 73.6001C156.954 71.6481 159.594 70.6721 162.826 70.6721C166.122 70.6721 168.73 71.5841 170.65 73.4081C172.602 75.2321 173.578 77.7441 173.578 80.9441C173.578 83.6001 172.778 86.1921 171.178 88.7201C169.61 91.2161 167.818 93.4241 165.802 95.3441C163.786 97.2321 161.21 99.4401 158.074 101.968H174.586V105.616H151.498V102.496Z"
                            stroke="black" stroke-width="1" />
                        <path
                            d="M184.435 88.2881C184.435 82.7841 185.331 78.4961 187.123 75.4241C188.915 72.3201 192.051 70.7681 196.531 70.7681C200.979 70.7681 204.099 72.3201 205.891 75.4241C207.683 78.4961 208.579 82.7841 208.579 88.2881C208.579 93.8881 207.683 98.2401 205.891 101.344C204.099 104.448 200.979 106 196.531 106C192.051 106 188.915 104.448 187.123 101.344C185.331 98.2401 184.435 93.8881 184.435 88.2881ZM204.259 88.2881C204.259 85.5041 204.067 83.1521 203.683 81.2321C203.331 79.2801 202.579 77.7121 201.427 76.5281C200.307 75.3441 198.675 74.7521 196.531 74.7521C194.355 74.7521 192.691 75.3441 191.539 76.5281C190.419 77.7121 189.667 79.2801 189.283 81.2321C188.931 83.1521 188.755 85.5041 188.755 88.2881C188.755 91.1681 188.931 93.5841 189.283 95.5361C189.667 97.4881 190.419 99.0561 191.539 100.24C192.691 101.424 194.355 102.016 196.531 102.016C198.675 102.016 200.307 101.424 201.427 100.24C202.579 99.0561 203.331 97.4881 203.683 95.5361C204.067 93.5841 204.259 91.1681 204.259 88.2881Z"
                            stroke="black" stroke-width="1" />
                        <path
                            d="M218.848 102.496C222.912 99.2321 226.096 96.5601 228.4 94.4801C230.704 92.3681 232.64 90.1761 234.208 87.9041C235.808 85.6001 236.608 83.3441 236.608 81.1361C236.608 79.0561 236.096 77.4241 235.072 76.2401C234.08 75.0241 232.464 74.4161 230.224 74.4161C228.048 74.4161 226.352 75.1041 225.136 76.4801C223.952 77.8241 223.312 79.6321 223.216 81.9041H218.992C219.12 78.3201 220.208 75.5521 222.256 73.6001C224.304 71.6481 226.944 70.6721 230.176 70.6721C233.472 70.6721 236.08 71.5841 238 73.4081C239.952 75.2321 240.928 77.7441 240.928 80.9441C240.928 83.6001 240.128 86.1921 238.528 88.7201C236.96 91.2161 235.168 93.4241 233.152 95.3441C231.136 97.2321 228.56 99.4401 225.424 101.968H241.936V105.616H218.848V102.496Z"
                            stroke="black" stroke-width="1" />
                        <path
                            d="M251.785 88.2881C251.785 82.7841 252.681 78.4961 254.473 75.4241C256.265 72.3201 259.401 70.7681 263.881 70.7681C268.329 70.7681 271.449 72.3201 273.241 75.4241C275.033 78.4961 275.929 82.7841 275.929 88.2881C275.929 93.8881 275.033 98.2401 273.241 101.344C271.449 104.448 268.329 106 263.881 106C259.401 106 256.265 104.448 254.473 101.344C252.681 98.2401 251.785 93.8881 251.785 88.2881ZM271.609 88.2881C271.609 85.5041 271.417 83.1521 271.033 81.2321C270.681 79.2801 269.929 77.7121 268.777 76.5281C267.657 75.3441 266.025 74.7521 263.881 74.7521C261.705 74.7521 260.041 75.3441 258.889 76.5281C257.769 77.7121 257.017 79.2801 256.633 81.2321C256.281 83.1521 256.105 85.5041 256.105 88.2881C256.105 91.1681 256.281 93.5841 256.633 95.5361C257.017 97.4881 257.769 99.0561 258.889 100.24C260.041 101.424 261.705 102.016 263.881 102.016C266.025 102.016 267.657 101.424 268.777 100.24C269.929 99.0561 270.681 97.4881 271.033 95.5361C271.417 93.5841 271.609 91.1681 271.609 88.2881Z"
                            stroke="black" stroke-width="1" />
                    </svg>