<svg id="Layer_1" data-name="Layer 1" xmlns="http://www.w3.org/2000/svg" viewBox="0 0 895.5 390"><path d="M1105,299.5c-4.69,0-8.5,4.48-8.5,10v23c0,5.52,3.81,10,8.5,10s8.5-4.48,8.5-10v-23C1113.5,304,1109.69,299.5,1105,299.5Z" transform="translate(-287.5 -149)" stroke="#000" stroke-miterlimit="10" stroke-width="8"/><path d="M1148.5,349.25c0-5.52-3.81-10-8.5-10s-8.5,4.48-8.5,10v10h.55a11.45,11.45,0,0,0-.55,3.5c0,5.52,3.81,10,8.5,10s8.5-4.48,8.5-10a11.45,11.45,0,0,0-.55-3.5h.55Z" transform="translate(-287.5 -149)" stroke="#000" stroke-miterlimit="10" stroke-width="8"/><path d="M1070,266c-4.69,0-8.5,4.48-8.5,10v50c0,5.52,3.81,10,8.5,10s8.5-4.48,8.5-10V276C1078.5,270.48,1074.69,266,1070,266Z" transform="translate(-287.5 -149)" stroke="#000" stroke-miterlimit="10" stroke-width="8"/><path d="M1035,299.5c-4.69,0-8.5,4.48-8.5,10v23c0,5.52,3.81,10,8.5,10s8.5-4.48,8.5-10v-23C1043.5,304,1039.69,299.5,1035,299.5Z" transform="translate(-287.5 -149)" stroke="#000" stroke-miterlimit="10" stroke-width="8"/><path d="M1008.5,349.25c0-5.52-3.81-10-8.5-10s-8.5,4.48-8.5,10v10h.55a11.45,11.45,0,0,0-.55,3.5c0,5.52,3.81,10,8.5,10s8.5-4.48,8.5-10a11.45,11.45,0,0,0-.55-3.5h.55Z" transform="translate(-287.5 -149)" stroke="#000" stroke-miterlimit="10" stroke-width="8"/><path d="M965,364c-4.69,0-8.5,4.48-8.5,10v40c0,5.52,3.81,10,8.5,10s8.5-4.48,8.5-10V374C973.5,368.48,969.69,364,965,364Z" transform="translate(-287.5 -149)" stroke="#000" stroke-miterlimit="10" stroke-width="8"/><path d="M930,374c-4.69,0-8.5,4.48-8.5,10v60c0,5.52,3.81,10,8.5,10s8.5-4.48,8.5-10V384C938.5,378.48,934.69,374,930,374Z" transform="translate(-287.5 -149)" stroke="#000" stroke-miterlimit="10" stroke-width="8"/><path d="M895,364c-4.69,0-8.5,4.48-8.5,10v40c0,5.52,3.81,10,8.5,10s8.5-4.48,8.5-10V374C903.5,368.48,899.69,364,895,364Z" transform="translate(-287.5 -149)" stroke="#000" stroke-miterlimit="10" stroke-width="8"/><path d="M868.5,349.25c0-5.52-3.81-10-8.5-10s-8.5,4.48-8.5,10v10h.55a11.45,11.45,0,0,0-.55,3.5c0,5.52,3.81,10,8.5,10s8.5-4.48,8.5-10a11.45,11.45,0,0,0-.55-3.5h.55Z" transform="translate(-287.5 -149)" stroke="#000" stroke-miterlimit="10" stroke-width="8"/><path d="M825,299.5c-4.69,0-8.5,4.48-8.5,10v23c0,5.52,3.81,10,8.5,10s8.5-4.48,8.5-10v-23C833.5,304,829.69,299.5,825,299.5Z" transform="translate(-287.5 -149)" stroke="#000" stroke-miterlimit="10" stroke-width="8"/><path d="M790,243c-4.69,0-8.5,4.48-8.5,10v50c0,5.52,3.81,10,8.5,10s8.5-4.48,8.5-10V253C798.5,247.48,794.69,243,790,243Z" transform="translate(-287.5 -149)" stroke="#000" stroke-miterlimit="10" stroke-width="8"/><path d="M755,193c-4.69,0-8.5,4.48-8.5,10v80c0,5.52,3.81,10,8.5,10s8.5-4.48,8.5-10V203C763.5,197.48,759.69,193,755,193Z" transform="translate(-287.5 -149)" stroke="#000" stroke-miterlimit="10" stroke-width="8"/><path d="M720,153c-4.69,0-8.5,4.48-8.5,10V273c0,5.52,3.81,10,8.5,10s8.5-4.48,8.5-10V163C728.5,157.48,724.69,153,720,153Z" transform="translate(-287.5 -149)" stroke="#000" stroke-miterlimit="10" stroke-width="8"/><path d="M685,193c-4.69,0-8.5,4.48-8.5,10v80c0,5.52,3.81,10,8.5,10s8.5-4.48,8.5-10V203C693.5,197.48,689.69,193,685,193Z" transform="translate(-287.5 -149)" stroke="#000" stroke-miterlimit="10" stroke-width="8"/><path d="M650,243c-4.69,0-8.5,4.48-8.5,10v50c0,5.52,3.81,10,8.5,10s8.5-4.48,8.5-10V253C658.5,247.48,654.69,243,650,243Z" transform="translate(-287.5 -149)" stroke="#000" stroke-miterlimit="10" stroke-width="8"/><path d="M615,299.5c-4.69,0-8.5,4.48-8.5,10v23c0,5.52,3.81,10,8.5,10s8.5-4.48,8.5-10v-23C623.5,304,619.69,299.5,615,299.5Z" transform="translate(-287.5 -149)" stroke="#000" stroke-miterlimit="10" stroke-width="8"/><path d="M588.5,349.25c0-5.52-3.81-10-8.5-10s-8.5,4.48-8.5,10v10h.55a11.45,11.45,0,0,0-.55,3.5c0,5.52,3.81,10,8.5,10s8.5-4.48,8.5-10a11.45,11.45,0,0,0-.55-3.5h.55Z" transform="translate(-287.5 -149)" stroke="#000" stroke-miterlimit="10" stroke-width="8"/><path d="M545,364c-4.69,0-8.5,4.48-8.5,10v40c0,5.52,3.81,10,8.5,10s8.5-4.48,8.5-10V374C553.5,368.48,549.69,364,545,364Z" transform="translate(-287.5 -149)" stroke="#000" stroke-miterlimit="10" stroke-width="8"/><path d="M510,374c-4.69,0-8.5,4.48-8.5,10v60c0,5.52,3.81,10,8.5,10s8.5-4.48,8.5-10V384C518.5,378.48,514.69,374,510,374Z" transform="translate(-287.5 -149)" stroke="#000" stroke-miterlimit="10" stroke-width="8"/><path d="M475,364c-4.69,0-8.5,4.48-8.5,10v40c0,5.52,3.81,10,8.5,10s8.5-4.48,8.5-10V374C483.5,368.48,479.69,364,475,364Z" transform="translate(-287.5 -149)" stroke="#000" stroke-miterlimit="10" stroke-width="8"/><path d="M448.5,349.25c0-5.52-3.81-10-8.5-10s-8.5,4.48-8.5,10v10h.55a11.45,11.45,0,0,0-.55,3.5c0,5.52,3.81,10,8.5,10s8.5-4.48,8.5-10a11.45,11.45,0,0,0-.55-3.5h.55Z" transform="translate(-287.5 -149)" stroke="#000" stroke-miterlimit="10" stroke-width="8"/><path d="M405,299.5c-4.69,0-8.5,4.48-8.5,10v23c0,5.52,3.81,10,8.5,10s8.5-4.48,8.5-10v-23C413.5,304,409.69,299.5,405,299.5Z" transform="translate(-287.5 -149)" stroke="#000" stroke-miterlimit="10" stroke-width="8"/><path d="M370,266c-4.69,0-8.5,4.48-8.5,10v50c0,5.52,3.81,10,8.5,10s8.5-4.48,8.5-10V276C378.5,270.48,374.69,266,370,266Z" transform="translate(-287.5 -149)" stroke="#000" stroke-miterlimit="10" stroke-width="8"/><path d="M335,299.5c-4.69,0-8.5,4.48-8.5,10v23c0,5.52,3.81,10,8.5,10s8.5-4.48,8.5-10v-23C343.5,304,339.69,299.5,335,299.5Z" transform="translate(-287.5 -149)" stroke="#000" stroke-miterlimit="10" stroke-width="8"/><path d="M308.5,349.25c0-5.52-3.81-10-8.5-10s-8.5,4.48-8.5,10v10h.55a11.45,11.45,0,0,0-.55,3.5c0,5.52,3.81,10,8.5,10s8.5-4.48,8.5-10a11.45,11.45,0,0,0-.55-3.5h.55Z" transform="translate(-287.5 -149)" stroke="#000" stroke-miterlimit="10" stroke-width="8"/><circle cx="822.5" cy="219" r="7" stroke="#000" stroke-miterlimit="10"/><circle cx="802.5" cy="219" r="7" stroke="#000" stroke-miterlimit="10"/><circle cx="782.5" cy="219" r="7" stroke="#000" stroke-miterlimit="10"/><circle cx="762.5" cy="219" r="7" stroke="#000" stroke-miterlimit="10"/><circle cx="742.5" cy="219" r="7" stroke="#000" stroke-miterlimit="10"/><circle cx="122.5" cy="219" r="7" stroke="#000" stroke-miterlimit="10"/><circle cx="102.5" cy="219" r="7" stroke="#000" stroke-miterlimit="10"/><circle cx="82.5" cy="219" r="7" stroke="#000" stroke-miterlimit="10"/><circle cx="62.5" cy="219" r="7" stroke="#000" stroke-miterlimit="10"/><circle cx="42.5" cy="219" r="7" stroke="#000" stroke-miterlimit="10"/><circle cx="432.5" cy="219" r="7" stroke="#000" stroke-miterlimit="10"/><circle cx="412.5" cy="219" r="7" stroke="#000" stroke-miterlimit="10"/><circle cx="392.5" cy="219" r="7" stroke="#000" stroke-miterlimit="10"/><circle cx="372.5" cy="219" r="7" stroke="#000" stroke-miterlimit="10"/><circle cx="352.5" cy="219" r="7" stroke="#000" stroke-miterlimit="10"/><circle cx="532.5" cy="219" r="7" stroke="#000" stroke-miterlimit="10"/><circle cx="512.5" cy="219" r="7" stroke="#000" stroke-miterlimit="10"/><circle cx="492.5" cy="219" r="7" stroke="#000" stroke-miterlimit="10"/><circle cx="472.5" cy="219" r="7" stroke="#000" stroke-miterlimit="10"/><circle cx="452.5" cy="219" r="7" stroke="#000" stroke-miterlimit="10"/><circle cx="332.5" cy="219" r="7" stroke="#000" stroke-miterlimit="10"/><text transform="translate(22.5 382.8)" font-size="36" stroke="#000" stroke-miterlimit="10" font-family="Gugi-Regular, Gugi" letter-spacing="0.66em">AALTO-HELSINKI 2022</text></svg>