<?xml version="1.0" encoding="UTF-8" standalone="no"?>
<!DOCTYPE svg PUBLIC "-//W3C//DTD SVG 1.1//EN"
"http://www.w3.org/Graphics/SVG/1.1/DTD/svg11.dtd">


<!-- Page 1 -->
<svg x="0" y="0" width="476" height="454" viewBox="0 0 476 454" version="1.1" xmlns="http://www.w3.org/2000/svg" xmlns:xlink="http://www.w3.org/1999/xlink"
style="display: block;margin-left: auto;margin-right: auto;">
<defs>

<style type="text/css"><![CDATA[

.g0_1{
fill: #231F20;
}

]]></style>

</defs>
<path d="M0,0
L0,454
L476,454
L476,0 Z " 
fill="#FFFFFF" stroke="none" />
<path d="M54.5,99H83.7l1.1,-2.5H54.5V49.7H83.7l1.1,-2.4H53.1L52,49.7V155.5l2.5,-1.1Z" class="g0_1" />
<path d="M111.1,47.3l-2.5,1.1V155.6l2.5,-1.1Z" class="g0_1" />
<path d="M297.7,47.3l-2.5,1.1V155.6l2.5,-1.1Z" class="g0_1" />
<path d="M328.2,153.6c-6.4,0,-9.3,-2.2,-9.4,-2.2l-.9,2.3c1.2,.7,4.5,2.3,10.3,2.3c14.7,0,22.6,-13,22.6,-25.3c0,-13.5,-8,-23.5,-15.7,-33C327.6,88.4,320.5,79.6,320.5,67.9c0,-9.3,5.5,-18.7,16,-18.7c5,0,8.3,2.1,8.3,2.2l.1,-.1l.9,-2.2c-1.1,-.7,-4.5,-2.3,-9.3,-2.3C325.8,46.8,318,55.7,318,67.9c0,12.5,7.7,22.1,15.1,31.3c7.5,9.2,15.2,18.8,15.2,31.5c0,11.1,-7.1,22.9,-20.1,22.9Z" class="g0_1" />
<path d="M246.7,280.6l2.5,-1.1V172.3l-2.5,1.1Z" class="g0_1" />
<path d="M133.1,280.6l1.1,-2.5H104V224h29.1l1.1,-2.5H104V174.8h29.1l1.1,-2.5H102.6l-1.1,2.5V280.6Z" class="g0_1" />
<path d="M65.5,280.6L68,279.5V174.8H89.1l1.1,-2.5H44.4l-1.1,2.5H65.5Z" class="g0_1" />
<path d="M306.8,280.6l1.1,-2.5H275.2V172.3l-2.5,1.1V280.6Z" class="g0_1" />
<path d="M350.2,174.8l1.1,-2.5H319.6l-1,2.5V280.6h31.6l1.1,-2.5H321.1V224h29.1l1.1,-2.5H321.1V174.8Z" class="g0_1" />
<path d="M169.1,226.1l20.3,-51.3h19.2V280.6l2.5,-1.1V174.8h21.1l1.1,-2.5H187.7l-20,50.5L147.2,172.3l-2.5,1.1l21.5,53l-21.5,54.2l3.2,-1.1l19.7,-49.8l20.6,50.9l2.5,-1.1Z" class="g0_1" />
<path d="M391.4,278.8c-12.8,0,-22.1,-10.4,-22.1,-24.8c0,-11.8,6,-22.4,18.5,-32.3c1.2,-1,2.4,-1.9,3.5,-2.9c1,1.5,2,3.1,3,4.8c5.5,8.4,16,24.8,24.1,37.5c-6.5,12.7,-16.9,17.7,-27,17.7m-8.8,-88.1c0,-12,7.5,-16.3,14,-16.3c6.9,0,12,5.8,12,13.8c0,6.1,-2.1,14.1,-16.7,26.9c-6.5,-11,-9.3,-18.3,-9.3,-24.4M421.3,261c3.6,-7.7,5.9,-18,5.9,-31.2c0,-2.8,-.4,-7.2,-1,-9.5h-.1l-2.3,1.1c.6,2.6,.9,6.4,.9,8.4c0,12,-1.9,21.4,-5.1,28.7c-7.9,-12.6,-17.8,-28.1,-23.1,-36.2c-1.2,-1.8,-2.3,-3.5,-3.3,-5.1c15.6,-13.6,17.9,-22.3,17.9,-29C411.1,178.8,405,172,396.6,172c-9.9,0,-16.5,7.5,-16.5,18.7c0,6.7,2.9,14.3,9.9,26c-1.2,1,-2.4,2.1,-3.8,3.1c-13.1,10.4,-19.4,21.6,-19.4,34.2c0,15.8,10.3,27.3,24.6,27.3c10.6,0,21.6,-5.1,28.5,-17.7c5.6,8.7,10.7,16.9,10.8,17l2.3,-1c-.1,-.1,-5.8,-9.3,-11.7,-18.6Z" class="g0_1" />
<path d="M83.7,299.8l1.1,-2.5H53.1L52,299.8V405.6l2.5,-1.1V349H83.7l1.1,-2.5H54.5V299.8Z" class="g0_1" />
<path d="M95.8,374.2v0l15.8,-70.3l15.6,70.3Zm17,-76.8v-.1l-2.4,1.1L86.1,405.6L89,404.5l6.3,-27.9h32.4l6.4,29l2.5,-1.1L112.9,297.3Z" class="g0_1" />
<path d="M147.8,318.1c0,-9.3,5.5,-18.7,16,-18.7c5,0,8.3,2.2,8.3,2.2v-.1l1,-2.2c-1.1,-.6,-4.5,-2.3,-9.3,-2.3c-10.7,0,-18.5,8.9,-18.5,21.1c0,12.5,7.7,22.1,15.1,31.3c7.5,9.2,15.2,18.8,15.2,31.5c0,11.1,-7.1,22.9,-20.1,22.9c-6.5,0,-9.3,-2.2,-9.4,-2.2l-1,2.3c1.3,.7,4.6,2.3,10.4,2.3c14.7,0,22.6,-13,22.6,-25.3c0,-13.5,-8,-23.4,-15.7,-33c-7.5,-9.3,-14.6,-18.1,-14.6,-29.8Z" class="g0_1" />
<path d="M372.1,99h49.7v56.6l2.5,-1.1V47.3l-2.5,1.1V96.5H372.1V47.3l-2.5,1.1V155.6l2.5,-1.1Z" class="g0_1" />
<path d="M267.6,149.5L219,47.3l-2.4,1.1V155.6l2.7,-1.1L219.2,53.9l48.4,101.7l2.5,-1.1V47.3l-2.8,1.1Z" class="g0_1" />
<path d="M189.7,155.6l2.4,-1.1V47.3l-2.7,1.1l.3,101.1L141.1,47.3l-2.4,1.1V155.6l2.7,-1.1L141.3,53.9Z" class="g0_1" />
<path d="M256.9,405.6l2.5,-1.1V297.3l-2.5,1.1Z" class="g0_1" />
<path d="M363.3,351.6c0,32.7,-16.4,52.1,-43.7,52.1c-27,0,-43.7,-19.9,-43.7,-52.1c0,-31.2,17.5,-52.2,43.7,-52.2c13.4,0,24.7,5.3,32.5,15.3c7.2,9.3,11.2,22.4,11.2,36.9M319.6,297c-27.7,0,-46.2,21.9,-46.2,54.6c0,33.2,18.1,54.6,46.2,54.6c28.9,0,46.2,-20.4,46.2,-54.6C365.8,318.9,347.2,297,319.6,297Z" class="g0_1" />
<path d="M236.6,346.6H193.2V297.3l-2.5,1.1V405.6l2.5,-1.1V349h43.4v56.6l2.5,-1.1V297.3l-2.5,1.1Z" class="g0_1" />
<path d="M421.7,398.4L382.5,297.3l-2.8,1.1V405.6l2.8,-1.1l-.3,-101.1l39.3,102.2l2.8,-1.1V297.3l-2.8,1.1Z" class="g0_1" />

</svg>
