<?xml version="1.0" encoding="UTF-8" standalone="no"?>
<svg
   xmlns:dc="http://purl.org/dc/elements/1.1/"
   xmlns:cc="http://creativecommons.org/ns#"
   xmlns:rdf="http://www.w3.org/1999/02/22-rdf-syntax-ns#"
   xmlns:svg="http://www.w3.org/2000/svg"
   xmlns="http://www.w3.org/2000/svg"
   xmlns:sodipodi="http://sodipodi.sourceforge.net/DTD/sodipodi-0.dtd"
   xmlns:inkscape="http://www.inkscape.org/namespaces/inkscape"
   version="1.1"
   id="svg2"
   xml:space="preserve"
   width="1122.52"
   height="793.70667"
   viewBox="0 0 1122.52 793.70667"
   sodipodi:docname="AH 2021 Mini logo with white borders.ai"><metadata
     id="metadata8"><rdf:RDF><cc:Work
         rdf:about=""><dc:format>image/svg+xml</dc:format><dc:type
           rdf:resource="http://purl.org/dc/dcmitype/StillImage" /></cc:Work></rdf:RDF></metadata><defs
     id="defs6"><clipPath
       clipPathUnits="userSpaceOnUse"
       id="clipPath18"><path
         d="M 0,595.28 H 841.89 V 0 H 0 Z"
         id="path16" /></clipPath></defs><sodipodi:namedview
     pagecolor="#ffffff"
     bordercolor="#666666"
     borderopacity="1"
     objecttolerance="10"
     gridtolerance="10"
     guidetolerance="10"
     inkscape:pageopacity="0"
     inkscape:pageshadow="2"
     inkscape:window-width="640"
     inkscape:window-height="480"
     id="namedview4" /><g
     id="g10"
     inkscape:groupmode="layer"
     inkscape:label="AH 2021 Mini logo with white borders"
     transform="matrix(1.3333333,0,0,-1.3333333,0,793.70667)"><g
       id="g12"><g
         id="g14"
         clip-path="url(#clipPath18)"><g
           id="g20"
           transform="translate(446.9609,289.0036)"><path
             d="m 0,0 c -11.725,0 -21.264,9.539 -21.264,21.263 v 145.591 c 0,11.725 9.539,21.264 21.264,21.264 11.725,0 21.264,-9.539 21.264,-21.264 V 21.263 C 21.264,9.539 11.725,0 0,0"
             style="fill:#000000;fill-opacity:1;fill-rule:nonzero;stroke:none"
             id="path22" /></g><g
           id="g24"
           transform="translate(446.9609,477.6218)"><path
             d="m 0,0 c -12.001,0 -21.764,-9.763 -21.764,-21.764 v -145.591 c 0,-12 9.763,-21.764 21.764,-21.764 12,0 21.764,9.764 21.764,21.764 V -21.764 C 21.764,-9.763 12,0 0,0 m 0,-1 c 11.468,0 20.764,-9.296 20.764,-20.764 v -145.591 c 0,-11.467 -9.296,-20.764 -20.764,-20.764 -11.468,0 -20.764,9.297 -20.764,20.764 V -21.764 C -20.764,-10.296 -11.468,-1 0,-1"
             style="fill:#ffffff;fill-opacity:1;fill-rule:nonzero;stroke:none"
             id="path26" /></g><g
           id="g28"
           transform="translate(498.9922,289.1257)"><path
             d="m 0,0 c -11.725,0 -21.264,9.539 -21.264,21.263 v 62.903 c 0,11.724 9.539,21.263 21.264,21.263 11.725,0 21.264,-9.539 21.264,-21.263 V 21.263 C 21.264,9.539 11.725,0 0,0"
             style="fill:#000000;fill-opacity:1;fill-rule:nonzero;stroke:none"
             id="path30" /></g><g
           id="g32"
           transform="translate(498.9922,395.0549)"><path
             d="m 0,0 c -12,0 -21.764,-9.763 -21.764,-21.764 v -62.902 c 0,-12.001 9.764,-21.763 21.764,-21.763 12.001,0 21.764,9.762 21.764,21.763 v 62.902 C 21.764,-9.763 12.001,0 0,0 m 0,-1 c 11.468,0 20.764,-9.296 20.764,-20.764 v -62.902 c 0,-11.467 -9.296,-20.763 -20.764,-20.763 -11.467,0 -20.764,9.296 -20.764,20.763 v 62.902 C -20.764,-10.296 -11.467,-1 0,-1"
             style="fill:#ffffff;fill-opacity:1;fill-rule:nonzero;stroke:none"
             id="path34" /></g><g
           id="g36"
           transform="translate(342.8975,371.6921)"><path
             d="m 0,0 c -11.725,0 -21.264,9.539 -21.264,21.264 v 20.885 c 0,11.726 9.539,21.265 21.264,21.265 11.725,0 21.264,-9.539 21.264,-21.265 V 21.264 C 21.264,9.539 11.725,0 0,0"
             style="fill:#000000;fill-opacity:1;fill-rule:nonzero;stroke:none"
             id="path38" /></g><g
           id="g40"
           transform="translate(342.8975,435.6057)"><path
             d="M 0,0 C -12,0 -21.764,-9.763 -21.764,-21.764 V -42.65 c 0,-12 9.764,-21.764 21.764,-21.764 12,0 21.764,9.764 21.764,21.764 v 20.886 C 21.764,-9.763 12,0 0,0 m 0,-1 c 11.468,0 20.764,-9.296 20.764,-20.764 V -42.65 c 0,-11.468 -9.296,-20.764 -20.764,-20.764 -11.467,0 -20.764,9.296 -20.764,20.764 v 20.886 C -20.764,-10.296 -11.467,-1 0,-1"
             style="fill:#ffffff;fill-opacity:1;fill-rule:nonzero;stroke:none"
             id="path42" /></g><g
           id="g44"
           transform="translate(394.9292,371.57)"><path
             d="m 0,0 c -11.725,0 -21.264,9.539 -21.264,21.264 v 63.024 c 0,11.725 9.539,21.264 21.264,21.264 11.725,0 21.264,-9.539 21.264,-21.264 V 21.264 C 21.264,9.539 11.725,0 0,0"
             style="fill:#000000;fill-opacity:1;fill-rule:nonzero;stroke:none"
             id="path46" /></g><g
           id="g48"
           transform="translate(394.9292,477.6218)"><path
             d="m 0,0 c -12,0 -21.764,-9.763 -21.764,-21.764 v -63.024 c 0,-12.001 9.764,-21.764 21.764,-21.764 12,0 21.764,9.763 21.764,21.764 v 63.024 C 21.764,-9.763 12,0 0,0 m 0,-1 c 11.467,0 20.764,-9.296 20.764,-20.764 v -63.024 c 0,-11.468 -9.297,-20.764 -20.764,-20.764 -11.468,0 -20.764,9.296 -20.764,20.764 v 63.024 C -20.764,-10.296 -11.468,-1 0,-1"
             style="fill:#ffffff;fill-opacity:1;fill-rule:nonzero;stroke:none"
             id="path50" /></g><g
           id="g52"
           transform="translate(342.8975,201.3767)"><path
             d="m 0,0 c -11.725,0 -21.264,9.539 -21.264,21.264 v 63.024 c 0,11.725 9.539,21.264 21.264,21.264 11.725,0 21.264,-9.539 21.264,-21.264 V 21.264 C 21.264,9.539 11.725,0 0,0"
             style="fill:#000000;fill-opacity:1;fill-rule:nonzero;stroke:none"
             id="path54" /></g><g
           id="g56"
           transform="translate(342.8975,307.4289)"><path
             d="m 0,0 c -12,0 -21.764,-9.763 -21.764,-21.764 v -63.025 c 0,-12 9.764,-21.763 21.764,-21.763 12,0 21.764,9.763 21.764,21.763 v 63.025 C 21.764,-9.763 12,0 0,0 m 0,-1 c 11.468,0 20.764,-9.296 20.764,-20.764 v -63.025 c 0,-11.466 -9.296,-20.763 -20.764,-20.763 -11.467,0 -20.764,9.297 -20.764,20.763 v 63.025 C -20.764,-10.296 -11.467,-1 0,-1"
             style="fill:#ffffff;fill-opacity:1;fill-rule:nonzero;stroke:none"
             id="path58" /></g><g
           id="g60"
           transform="translate(384.6694,201.3767)"><path
             d="m 0,0 c -6.067,0 -11.004,4.937 -11.004,11.004 0,6.068 4.937,11.005 11.004,11.005 h 20.52 c 6.067,0 11.003,-4.937 11.003,-11.005 C 31.523,4.937 26.587,0 20.52,0 Z"
             style="fill:#000000;fill-opacity:1;fill-rule:nonzero;stroke:none"
             id="path62" /></g><g
           id="g64"
           transform="translate(405.189,223.8855)"><path
             d="m 0,0 h -20.52 c -6.343,0 -11.503,-5.161 -11.503,-11.505 0,-6.343 5.16,-11.504 11.503,-11.504 H 0 c 6.343,0 11.504,5.161 11.504,11.504 C 11.504,-5.161 6.343,0 0,0 m 0,-1 c 5.801,0 10.504,-4.703 10.504,-10.505 0,-5.801 -4.703,-10.504 -10.504,-10.504 h -20.52 c -5.801,0 -10.503,4.703 -10.503,10.504 0,5.802 4.702,10.505 10.503,10.505 H 0"
             style="fill:#ffffff;fill-opacity:1;fill-rule:nonzero;stroke:none"
             id="path66" /></g><g
           id="g68"
           transform="translate(342.8975,326.2038)"><path
             d="m 0,0 c -11.725,0 -21.264,9.539 -21.264,21.264 0,11.725 9.539,21.264 21.264,21.264 11.725,0 21.264,-9.539 21.264,-21.264 C 21.264,9.539 11.725,0 0,0"
             style="fill:#000000;fill-opacity:1;fill-rule:nonzero;stroke:none"
             id="path70" /></g><g
           id="g72"
           transform="translate(342.8975,369.2317)"><path
             d="m 0,0 c -12,0 -21.764,-9.763 -21.764,-21.764 0,-12 9.764,-21.764 21.764,-21.764 12,0 21.764,9.764 21.764,21.764 C 21.764,-9.763 12,0 0,0 m 0,-1 c 11.468,0 20.764,-9.296 20.764,-20.764 0,-11.467 -9.296,-20.764 -20.764,-20.764 -11.467,0 -20.764,9.297 -20.764,20.764 C -20.764,-10.296 -11.467,-1 0,-1"
             style="fill:#ffffff;fill-opacity:1;fill-rule:nonzero;stroke:none"
             id="path74" /></g><g
           id="g76"
           transform="translate(394.9292,264.157)"><path
             d="m 0,0 c -11.725,0 -21.264,9.539 -21.264,21.264 v 62.047 c 0,11.725 9.539,21.264 21.264,21.264 11.725,0 21.264,-9.539 21.264,-21.264 V 21.264 C 21.264,9.539 11.725,0 0,0"
             style="fill:#000000;fill-opacity:1;fill-rule:nonzero;stroke:none"
             id="path78" /></g><g
           id="g80"
           transform="translate(394.9292,369.2317)"><path
             d="m 0,0 c -12,0 -21.764,-9.763 -21.764,-21.764 v -62.047 c 0,-12.001 9.764,-21.764 21.764,-21.764 12,0 21.764,9.763 21.764,21.764 v 62.047 C 21.764,-9.763 12,0 0,0 m 0,-1 c 11.467,0 20.764,-9.296 20.764,-20.764 v -62.047 c 0,-11.468 -9.297,-20.764 -20.764,-20.764 -11.468,0 -20.764,9.296 -20.764,20.764 v 62.047 C -20.764,-10.296 -11.468,-1 0,-1"
             style="fill:#ffffff;fill-opacity:1;fill-rule:nonzero;stroke:none"
             id="path82" /></g><g
           id="g84"
           transform="translate(446.9609,117.0261)"><path
             d="m 0,0 c -11.725,0 -21.264,9.539 -21.264,21.264 v 124.827 c 0,11.724 9.539,21.263 21.264,21.263 11.725,0 21.264,-9.539 21.264,-21.263 V 21.264 C 21.264,9.539 11.725,0 0,0"
             style="fill:#000000;fill-opacity:1;fill-rule:nonzero;stroke:none"
             id="path86" /></g><g
           id="g88"
           transform="translate(446.9609,284.8806)"><path
             d="m 0,0 c -12.001,0 -21.764,-9.763 -21.764,-21.764 v -124.827 c 0,-12.001 9.763,-21.763 21.764,-21.763 12,0 21.764,9.762 21.764,21.763 V -21.764 C 21.764,-9.763 12,0 0,0 m 0,-1 c 11.468,0 20.764,-9.296 20.764,-20.764 v -124.827 c 0,-11.468 -9.296,-20.763 -20.764,-20.763 -11.468,0 -20.764,9.295 -20.764,20.763 V -21.764 C -20.764,-10.296 -11.468,-1 0,-1"
             style="fill:#ffffff;fill-opacity:1;fill-rule:nonzero;stroke:none"
             id="path90" /></g><g
           id="g92"
           transform="translate(353.1572,169.6911)"><path
             d="m 0,0 h -20.52 c -5.801,0 -10.503,4.702 -10.503,10.504 0,5.801 4.702,10.504 10.503,10.504 H 0 c 5.801,0 10.504,-4.703 10.504,-10.504 C 10.504,4.702 5.801,0 0,0"
             style="fill:#ffffff;fill-opacity:1;fill-rule:nonzero;stroke:none"
             id="path94" /></g><g
           id="g96"
           transform="translate(353.1572,169.6911)"><path
             d="m 0,0 h -20.52 c -5.801,0 -10.503,4.702 -10.503,10.504 0,5.801 4.702,10.504 10.503,10.504 H 0 c 5.801,0 10.504,-4.703 10.504,-10.504 C 10.504,4.702 5.801,0 0,0 Z"
             style="fill:none;stroke:#231f20;stroke-width:1;stroke-linecap:butt;stroke-linejoin:miter;stroke-miterlimit:10;stroke-dasharray:none;stroke-opacity:1"
             id="path98" /></g><g
           id="g100"
           transform="translate(395.1997,195.572)"><path
             d="m 0,0 v 0 c 11.318,0 20.493,-9.176 20.493,-20.494 v -37.059 c 0,-11.318 -9.175,-20.493 -20.493,-20.493 -11.318,0 -20.494,9.175 -20.494,20.493 v 37.059 C -20.494,-9.176 -11.318,0 0,0"
             style="fill:#ffffff;fill-opacity:1;fill-rule:nonzero;stroke:none"
             id="path102" /></g><g
           id="g104"
           transform="translate(395.1997,195.572)"><path
             d="m 0,0 v 0 c 11.318,0 20.493,-9.176 20.493,-20.494 v -37.059 c 0,-11.318 -9.175,-20.493 -20.493,-20.493 -11.318,0 -20.494,9.175 -20.494,20.493 v 37.059 C -20.494,-9.176 -11.318,0 0,0 Z"
             style="fill:none;stroke:#231f20;stroke-width:1;stroke-linecap:butt;stroke-linejoin:miter;stroke-miterlimit:10;stroke-dasharray:none;stroke-opacity:1"
             id="path106" /></g><g
           id="g108"
           transform="translate(342.8975,158.5124)"><path
             d="m 0,0 v 0 c 11.318,0 20.494,-9.175 20.494,-20.493 0,-11.319 -9.176,-20.493 -20.494,-20.493 -11.318,0 -20.493,9.174 -20.493,20.493 C -20.493,-9.175 -11.318,0 0,0"
             style="fill:#ffffff;fill-opacity:1;fill-rule:nonzero;stroke:none"
             id="path110" /></g><g
           id="g112"
           transform="translate(342.8975,158.5124)"><path
             d="m 0,0 v 0 c 11.318,0 20.494,-9.175 20.494,-20.493 0,-11.319 -9.176,-20.493 -20.494,-20.493 -11.318,0 -20.493,9.174 -20.493,20.493 C -20.493,-9.175 -11.318,0 0,0 Z"
             style="fill:none;stroke:#231f20;stroke-width:1;stroke-linecap:butt;stroke-linejoin:miter;stroke-miterlimit:10;stroke-dasharray:none;stroke-opacity:1"
             id="path114" /></g><g
           id="g116"
           transform="translate(498.9922,117.5261)"><path
             d="m 0,0 v 0 c -11.467,0 -20.764,9.296 -20.764,20.764 v 124.739 c 0,11.468 9.297,20.764 20.764,20.764 11.468,0 20.764,-9.296 20.764,-20.764 V 20.764 C 20.764,9.296 11.468,0 0,0"
             style="fill:#ffffff;fill-opacity:1;fill-rule:nonzero;stroke:none"
             id="path118" /></g><g
           id="g120"
           transform="translate(498.9922,117.5261)"><path
             d="m 0,0 v 0 c -11.467,0 -20.764,9.296 -20.764,20.764 v 124.739 c 0,11.468 9.297,20.764 20.764,20.764 11.468,0 20.764,-9.296 20.764,-20.764 V 20.764 C 20.764,9.296 11.468,0 0,0 Z"
             style="fill:none;stroke:#231f20;stroke-width:1;stroke-linecap:butt;stroke-linejoin:miter;stroke-miterlimit:10;stroke-dasharray:none;stroke-opacity:1"
             id="path122" /></g><g
           id="g124"
           transform="translate(498.9922,405.6408)"><path
             d="m 0,0 v 0 c -11.467,0 -20.764,9.296 -20.764,20.764 v 28.952 c 0,11.468 9.297,20.764 20.764,20.764 11.468,0 20.764,-9.296 20.764,-20.764 V 20.764 C 20.764,9.296 11.468,0 0,0"
             style="fill:#ffffff;fill-opacity:1;fill-rule:nonzero;stroke:none"
             id="path126" /></g><g
           id="g128"
           transform="translate(498.9922,405.6408)"><path
             d="m 0,0 v 0 c -11.467,0 -20.764,9.296 -20.764,20.764 v 28.952 c 0,11.468 9.297,20.764 20.764,20.764 11.468,0 20.764,-9.296 20.764,-20.764 V 20.764 C 20.764,9.296 11.468,0 0,0 Z"
             style="fill:none;stroke:#231f20;stroke-width:1;stroke-linecap:butt;stroke-linejoin:miter;stroke-miterlimit:10;stroke-dasharray:none;stroke-opacity:1"
             id="path130" /></g><g
           id="g132"
           transform="translate(346.1284,440.8811)"><path
             d="m 0,0 h -6.462 c -9.683,0 -17.533,7.85 -17.533,17.533 0,9.683 7.85,17.533 17.533,17.533 H 0 c 9.683,0 17.533,-7.85 17.533,-17.533 C 17.533,7.85 9.683,0 0,0"
             style="fill:#ffffff;fill-opacity:1;fill-rule:nonzero;stroke:none"
             id="path134" /></g><g
           id="g136"
           transform="translate(346.1284,440.8811)"><path
             d="m 0,0 h -6.462 c -9.683,0 -17.533,7.85 -17.533,17.533 0,9.683 7.85,17.533 17.533,17.533 H 0 c 9.683,0 17.533,-7.85 17.533,-17.533 C 17.533,7.85 9.683,0 0,0 Z"
             style="fill:none;stroke:#231f20;stroke-width:1;stroke-linecap:butt;stroke-linejoin:miter;stroke-miterlimit:10;stroke-dasharray:none;stroke-opacity:1"
             id="path138" /></g></g></g></g></svg>
