<?xml version="1.0" encoding="UTF-8"?> <svg xmlns="http://www.w3.org/2000/svg" xmlns:xlink="http://www.w3.org/1999/xlink" width="184px" height="85px" viewBox="0 0 183 85" version="1.1"><g id="surface1"><path style=" stroke:none;fill-rule:nonzero;fill:rgb(93.72549%,40%,10.196078%);fill-opacity:1;" d="M 7.214844 54.921875 C 9.125 56.199219 11.355469 56.910156 13.648438 56.964844 C 17.074219 56.964844 19.308594 55.039062 19.308594 51.644531 L 19.308594 50.378906 L 19.230469 50.296875 C 17.71875 51.289062 15.945312 51.804688 14.140625 51.773438 C 11.535156 51.789062 9.039062 50.738281 7.230469 48.859375 C 5.421875 46.980469 4.457031 44.441406 4.5625 41.828125 C 4.5625 36.027344 8.597656 31.273438 14.957031 31.273438 C 16.707031 31.253906 18.4375 31.648438 20.011719 32.421875 L 24.246094 31.683594 L 24.246094 51.609375 C 24.246094 57.703125 20.09375 61.296875 13.8125 61.296875 C 11.53125 61.3125 9.277344 60.808594 7.214844 59.828125 Z M 15.203125 47.621094 C 16.679688 47.636719 18.128906 47.199219 19.355469 46.371094 L 19.355469 36.636719 C 18.082031 35.941406 16.652344 35.578125 15.203125 35.582031 C 11.613281 35.582031 9.53125 38.316406 9.53125 41.59375 C 9.53125 45.058594 11.777344 47.640625 15.203125 47.640625 Z M 15.203125 47.621094 "></path><path style=" stroke:none;fill-rule:nonzero;fill:rgb(93.72549%,40%,10.196078%);fill-opacity:1;" d="M 33.941406 43.144531 C 34.550781 46.492188 37.203125 48.214844 40.585938 48.214844 C 43.050781 48.167969 45.445312 47.351562 47.429688 45.878906 L 47.429688 50.441406 C 45.191406 51.703125 42.660156 52.351562 40.09375 52.320312 C 33.660156 52.320312 28.933594 48.152344 28.933594 41.847656 C 28.832031 39.066406 29.863281 36.363281 31.792969 34.367188 C 33.726562 32.371094 36.386719 31.253906 39.160156 31.273438 C 44.128906 31.273438 48.527344 34.675781 48.527344 41.136719 C 48.53125 41.808594 48.492188 42.476562 48.410156 43.144531 Z M 33.941406 39.703125 L 43.894531 39.703125 C 43.734375 37.171875 41.605469 35.21875 39.078125 35.289062 C 36.507812 35.273438 34.320312 37.15625 33.941406 39.703125 Z M 33.941406 39.703125 "></path><path style=" stroke:none;fill-rule:nonzero;fill:rgb(93.72549%,40%,10.196078%);fill-opacity:1;" d="M 53.425781 31.730469 L 58.316406 31.730469 L 58.316406 33.890625 L 58.398438 33.9375 C 60.191406 32.257812 62.542969 31.304688 64.996094 31.273438 C 66.984375 31.195312 68.910156 31.972656 70.292969 33.410156 C 71.476562 34.675781 72.003906 36.347656 72.003906 39.339844 L 72.003906 51.855469 L 67.078125 51.855469 L 67.078125 40.195312 C 67.078125 38.371094 66.832031 37.414062 66.257812 36.757812 C 65.589844 36 64.609375 35.59375 63.605469 35.652344 C 61.589844 35.765625 59.699219 36.679688 58.351562 38.1875 L 58.351562 51.875 L 53.425781 51.875 Z M 53.425781 31.730469 "></path><path style=" stroke:none;fill-rule:nonzero;fill:rgb(93.72549%,40%,10.196078%);fill-opacity:1;" d="M 81.570312 43.144531 C 82.191406 46.492188 84.835938 48.214844 88.214844 48.214844 C 90.683594 48.167969 93.074219 47.351562 95.058594 45.878906 L 95.058594 50.441406 C 92.820312 51.703125 90.289062 52.351562 87.722656 52.320312 C 81.289062 52.304688 76.609375 48.132812 76.609375 41.828125 C 76.511719 39.058594 77.539062 36.367188 79.460938 34.375 C 81.382812 32.386719 84.027344 31.265625 86.789062 31.273438 C 91.757812 31.273438 96.15625 34.675781 96.15625 41.136719 C 96.164062 41.808594 96.121094 42.476562 96.039062 43.144531 Z M 81.570312 39.703125 L 91.566406 39.703125 C 91.414062 37.171875 89.285156 35.21875 86.761719 35.289062 C 84.175781 35.25 81.957031 37.136719 81.570312 39.703125 Z M 81.570312 39.703125 "></path><path style=" stroke:none;fill-rule:nonzero;fill:rgb(19.607843%,19.215686%,20%);fill-opacity:1;" d="M 103.535156 26.574219 C 102.539062 26.546875 101.753906 25.714844 101.773438 24.714844 C 101.792969 23.714844 102.613281 22.917969 103.609375 22.925781 C 104.605469 22.9375 105.410156 23.75 105.410156 24.75 C 105.410156 25.246094 105.210938 25.71875 104.859375 26.0625 C 104.503906 26.40625 104.027344 26.589844 103.535156 26.574219 Z M 102.355469 31.730469 L 104.78125 31.730469 L 104.78125 51.855469 L 102.382812 51.855469 Z M 102.355469 31.730469 "></path><path style=" stroke:none;fill-rule:nonzero;fill:rgb(19.607843%,19.215686%,20%);fill-opacity:1;" d="M 120.496094 31.273438 C 123.28125 31.222656 125.964844 32.316406 127.929688 34.304688 C 129.890625 36.292969 130.957031 38.996094 130.882812 41.792969 C 130.882812 47.550781 126.230469 52.21875 120.496094 52.21875 C 114.757812 52.21875 110.105469 47.550781 110.105469 41.792969 C 110.03125 38.996094 111.101562 36.292969 113.0625 34.304688 C 115.023438 32.316406 117.707031 31.222656 120.496094 31.273438 Z M 120.496094 50.09375 C 122.667969 50.109375 124.75 49.230469 126.261719 47.660156 C 127.769531 46.09375 128.574219 43.972656 128.484375 41.792969 C 128.625 38.835938 127.132812 36.042969 124.601562 34.523438 C 122.074219 33 118.917969 33 116.386719 34.523438 C 113.855469 36.042969 112.367188 38.835938 112.507812 41.792969 C 112.417969 43.972656 113.21875 46.09375 114.730469 47.660156 C 116.238281 49.230469 118.324219 50.109375 120.496094 50.09375 Z M 120.496094 50.09375 "></path><path style=" stroke:none;fill-rule:nonzero;fill:rgb(19.607843%,19.215686%,20%);fill-opacity:1;" d="M 136.234375 43.871094 L 136.234375 31.730469 L 138.644531 31.730469 L 138.644531 43.425781 C 138.644531 45.925781 138.960938 47.511719 139.90625 48.582031 C 140.890625 49.609375 142.269531 50.160156 143.6875 50.09375 C 146.539062 50.09375 149.03125 48.417969 150.957031 46.371094 L 150.957031 31.777344 L 153.367188 31.777344 L 153.367188 51.855469 L 150.957031 51.855469 L 150.957031 48.992188 L 150.882812 48.945312 C 148.875 51.019531 146.140625 52.226562 143.261719 52.304688 C 141.28125 52.390625 139.359375 51.613281 137.988281 50.175781 C 136.761719 48.78125 136.234375 46.902344 136.234375 43.871094 Z M 136.234375 43.871094 "></path><path style=" stroke:none;fill-rule:nonzero;fill:rgb(19.607843%,19.215686%,20%);fill-opacity:1;" d="M 167.433594 40.480469 C 164.417969 39.996094 161.152344 39.703125 161.152344 36.882812 C 161.152344 35.332031 162.152344 34.339844 163.753906 33.855469 C 163.472656 33.171875 163.265625 32.460938 163.144531 31.730469 C 160.464844 32.503906 158.753906 34.285156 158.753906 37.050781 C 158.753906 41.136719 162.542969 42.113281 165.878906 42.652344 C 169.023438 43.144531 172.359375 43.460938 172.359375 46.492188 C 172.359375 48.910156 170.207031 50.09375 166.816406 50.09375 C 164.144531 50.105469 161.523438 49.371094 159.246094 47.96875 L 159.246094 50.542969 C 161.546875 51.734375 164.105469 52.339844 166.699219 52.304688 C 171.542969 52.304688 174.765625 50.257812 174.765625 46.289062 C 174.757812 42.039062 171.058594 41.054688 167.433594 40.480469 Z M 167.433594 40.480469 "></path><path style=" stroke:none;fill-rule:nonzero;fill:rgb(93.72549%,40%,10.196078%);fill-opacity:1;" d="M 178.140625 9.707031 C 177.984375 9.535156 177.769531 9.433594 177.539062 9.414062 C 177.300781 9.421875 177.082031 9.558594 176.96875 9.769531 C 177.457031 11.238281 177.4375 11.722656 177.039062 12.132812 C 176.921875 12.246094 176.765625 12.304688 176.601562 12.296875 C 176.222656 12.265625 175.863281 12.125 175.558594 11.898438 C 172.988281 9.910156 169.320312 10.273438 167.1875 12.726562 C 165.050781 15.175781 165.183594 18.875 167.488281 21.164062 C 167.53125 21.226562 167.582031 21.28125 167.632812 21.328125 C 170.632812 24.320312 170.921875 24.632812 168.542969 27.085938 C 167.007812 28.445312 166.46875 30.621094 167.191406 32.542969 C 167.917969 34.46875 169.75 35.738281 171.800781 35.738281 C 173.847656 35.738281 175.683594 34.46875 176.40625 32.542969 C 177.132812 30.621094 176.59375 28.445312 175.058594 27.085938 C 172.675781 24.640625 172.976562 24.347656 175.96875 21.339844 C 176.019531 21.289062 176.070312 21.234375 176.113281 21.175781 C 177.285156 20.011719 177.941406 18.421875 177.929688 16.769531 C 177.933594 16.148438 177.84375 15.535156 177.65625 14.945312 C 177.835938 14.835938 178 14.707031 178.148438 14.558594 C 179.460938 13.210938 179.457031 11.050781 178.140625 9.707031 Z M 171.777344 15.492188 C 172.476562 15.492188 173.039062 16.058594 173.039062 16.757812 C 173.039062 17.460938 172.476562 18.027344 171.777344 18.027344 C 171.078125 18.027344 170.515625 17.460938 170.515625 16.757812 C 170.523438 16.0625 171.09375 15.503906 171.785156 15.507812 Z M 171.777344 31.730469 C 171.28125 31.730469 170.878906 31.328125 170.871094 30.832031 C 170.863281 30.335938 171.253906 29.921875 171.75 29.90625 C 172.246094 29.890625 172.660156 30.273438 172.6875 30.773438 C 172.699219 31.019531 172.609375 31.261719 172.441406 31.445312 C 172.269531 31.625 172.035156 31.726562 171.785156 31.730469 Z M 171.777344 31.730469 "></path><path style=" stroke:none;fill-rule:nonzero;fill:rgb(21.176471%,21.176471%,21.176471%);fill-opacity:1;" d="M 62.976562 75.101562 L 62.976562 76.296875 L 61.261719 76.296875 L 61.261719 63.285156 L 62.976562 63.285156 L 62.976562 68.421875 C 63.800781 67.5 64.980469 66.976562 66.214844 66.992188 C 68.75 67.101562 70.75 69.199219 70.75 71.75 C 70.75 74.296875 68.75 76.394531 66.214844 76.507812 C 64.984375 76.519531 63.808594 76.007812 62.976562 75.101562 Z M 66.050781 74.882812 C 67.320312 74.90625 68.476562 74.152344 68.976562 72.980469 C 69.476562 71.804688 69.222656 70.445312 68.328125 69.539062 C 67.433594 68.632812 66.082031 68.355469 64.90625 68.84375 C 63.734375 69.332031 62.96875 70.488281 62.976562 71.761719 C 62.949219 72.589844 63.261719 73.390625 63.839844 73.980469 C 64.414062 74.570312 65.207031 74.894531 66.03125 74.882812 Z M 66.050781 74.882812 "></path><path style=" stroke:none;fill-rule:nonzero;fill:rgb(21.176471%,21.176471%,21.176471%);fill-opacity:1;" d="M 73.066406 67.226562 L 75.792969 73.933594 L 78.425781 67.226562 L 80.246094 67.226562 L 75.046875 79.789062 L 73.230469 79.789062 L 74.890625 75.921875 L 71.257812 67.226562 Z M 73.066406 67.226562 "></path><path style=" stroke:none;fill-rule:nonzero;fill:rgb(21.176471%,21.176471%,21.176471%);fill-opacity:1;" d="M 97.792969 71.371094 C 97.785156 68.527344 100.070312 66.210938 102.902344 66.199219 C 105.738281 66.183594 108.046875 68.476562 108.0625 71.320312 C 108.078125 74.164062 105.796875 76.484375 102.964844 76.507812 C 101.597656 76.527344 100.277344 75.996094 99.304688 75.03125 C 98.328125 74.0625 97.785156 72.742188 97.792969 71.371094 Z M 102.964844 74.453125 C 104.222656 74.503906 105.378906 73.777344 105.894531 72.625 C 106.40625 71.476562 106.171875 70.125 105.300781 69.214844 C 104.425781 68.308594 103.089844 68.023438 101.925781 68.496094 C 100.761719 68.96875 100 70.109375 100 71.371094 C 99.980469 72.175781 100.28125 72.957031 100.839844 73.535156 C 101.394531 74.117188 102.160156 74.445312 102.964844 74.453125 Z M 102.964844 74.453125 "></path><path style=" stroke:none;fill-rule:nonzero;fill:rgb(21.176471%,21.176471%,21.176471%);fill-opacity:1;" d="M 108.734375 66.480469 L 110.550781 66.480469 L 110.550781 63.863281 L 112.761719 63.863281 L 112.761719 66.453125 L 115.371094 66.453125 L 115.371094 68.421875 L 112.761719 68.421875 L 112.761719 72.820312 C 112.699219 73.222656 112.828125 73.632812 113.109375 73.925781 C 113.390625 74.21875 113.792969 74.363281 114.195312 74.316406 L 115.371094 74.316406 L 115.371094 76.261719 L 113.914062 76.261719 C 111.6875 76.261719 110.550781 75.21875 110.550781 72.984375 L 110.550781 68.421875 L 108.734375 68.421875 Z M 108.734375 66.480469 "></path><path style=" stroke:none;fill-rule:nonzero;fill:rgb(21.176471%,21.176471%,21.176471%);fill-opacity:1;" d="M 117.1875 66.480469 L 119.558594 66.480469 L 119.558594 67.390625 C 120.28125 66.664062 121.261719 66.257812 122.285156 66.261719 C 123.441406 66.234375 124.527344 66.816406 125.148438 67.792969 C 126.003906 66.792969 127.261719 66.230469 128.574219 66.261719 C 130.78125 66.261719 132.210938 67.777344 132.210938 70.191406 L 132.210938 76.289062 L 129.957031 76.289062 L 129.957031 70.675781 C 129.957031 69.199219 129.21875 68.277344 127.964844 68.277344 C 127.34375 68.273438 126.753906 68.535156 126.335938 68.996094 C 125.921875 69.457031 125.71875 70.074219 125.785156 70.695312 L 125.785156 76.25 L 123.574219 76.25 L 123.574219 70.675781 C 123.574219 69.179688 122.792969 68.277344 121.503906 68.277344 C 120.414062 68.277344 119.394531 69.082031 119.394531 70.859375 L 119.394531 76.25 L 117.1875 76.25 Z M 117.1875 66.480469 "></path><path style=" stroke:none;fill-rule:nonzero;fill:rgb(21.176471%,21.176471%,21.176471%);fill-opacity:1;" d="M 133.597656 73.515625 C 133.597656 71.597656 135.191406 70.257812 138.144531 70.257812 L 139.898438 70.257812 L 139.898438 70.019531 C 139.945312 69.476562 139.75 68.941406 139.367188 68.558594 C 138.980469 68.175781 138.445312 67.984375 137.90625 68.039062 C 136.890625 67.964844 135.988281 68.703125 135.863281 69.71875 L 133.679688 69.71875 C 133.78125 67.65625 135.5 66.226562 137.972656 66.226562 C 140.5625 66.226562 142.152344 67.804688 142.152344 70.210938 L 142.152344 76.25 L 139.988281 76.25 L 139.988281 75.230469 C 139.285156 76.027344 138.277344 76.492188 137.214844 76.507812 C 135.027344 76.507812 133.597656 75.328125 133.597656 73.515625 Z M 137.398438 74.808594 C 138.105469 74.800781 138.78125 74.507812 139.269531 73.992188 C 139.757812 73.476562 140.019531 72.785156 139.988281 72.074219 L 139.988281 71.890625 L 138.234375 71.890625 C 136.625 71.890625 135.761719 72.429688 135.761719 73.449219 C 135.761719 74.226562 136.34375 74.808594 137.398438 74.808594 Z M 137.398438 74.808594 "></path><path style=" stroke:none;fill-rule:nonzero;fill:rgb(21.176471%,21.176471%,21.176471%);fill-opacity:1;" d="M 143.140625 66.480469 L 144.960938 66.480469 L 144.960938 63.863281 L 147.167969 63.863281 L 147.167969 66.453125 L 149.777344 66.453125 L 149.777344 68.421875 L 147.167969 68.421875 L 147.167969 72.820312 C 147.105469 73.222656 147.234375 73.632812 147.515625 73.925781 C 147.796875 74.21875 148.199219 74.363281 148.605469 74.316406 L 149.777344 74.316406 L 149.777344 76.261719 L 148.402344 76.261719 C 146.175781 76.261719 145.042969 75.21875 145.042969 72.984375 L 145.042969 68.421875 L 143.222656 68.421875 Z M 143.140625 66.480469 "></path><path style=" stroke:none;fill-rule:nonzero;fill:rgb(21.176471%,21.176471%,21.176471%);fill-opacity:1;" d="M 151.128906 62.292969 L 153.476562 62.292969 L 153.476562 64.773438 L 151.128906 64.773438 Z M 153.421875 66.480469 L 153.421875 76.25 L 151.210938 76.25 L 151.210938 66.480469 Z M 153.421875 66.480469 "></path><path style=" stroke:none;fill-rule:nonzero;fill:rgb(21.176471%,21.176471%,21.176471%);fill-opacity:1;" d="M 155.4375 73.6875 C 155.09375 72.964844 154.917969 72.171875 154.917969 71.371094 C 154.898438 70.003906 155.425781 68.6875 156.386719 67.71875 C 157.347656 66.746094 158.65625 66.210938 160.019531 66.226562 C 162.277344 66.144531 164.25 67.742188 164.652344 69.972656 L 162.398438 69.972656 C 162.054688 68.933594 161.0625 68.246094 159.972656 68.296875 C 158.378906 68.417969 157.144531 69.753906 157.144531 71.359375 C 157.144531 72.96875 158.378906 74.300781 159.972656 74.425781 C 161.09375 74.480469 162.101562 73.753906 162.417969 72.675781 L 164.652344 72.675781 C 164.316406 74.957031 162.3125 76.609375 160.019531 76.507812 C 158.089844 76.523438 156.324219 75.425781 155.472656 73.6875 "></path><path style=" stroke:none;fill-rule:nonzero;fill:rgb(21.176471%,21.176471%,21.176471%);fill-opacity:1;" d="M 165.863281 73.25 L 167.96875 73.25 C 168.015625 73.714844 168.246094 74.140625 168.609375 74.433594 C 168.96875 74.726562 169.433594 74.863281 169.894531 74.808594 C 170.996094 74.808594 171.632812 74.261719 171.632812 73.550781 C 171.632812 71.46875 166.042969 72.929688 166.042969 69.289062 C 166.042969 67.464844 167.570312 66.261719 169.679688 66.261719 C 171.785156 66.261719 173.40625 67.300781 173.605469 69.253906 L 171.433594 69.253906 C 171.246094 68.414062 170.464844 67.851562 169.613281 67.941406 C 168.796875 67.941406 168.0625 68.296875 168.0625 69.070312 C 168.0625 71.015625 173.730469 69.492188 173.730469 73.285156 C 173.730469 75.203125 172.140625 76.542969 169.851562 76.542969 C 167.5625 76.542969 166.023438 75.3125 165.863281 73.25 Z M 165.863281 73.25 "></path><path style=" stroke:none;fill-rule:nonzero;fill:rgb(21.176471%,21.176471%,21.176471%);fill-opacity:1;" d="M 90.160156 62.265625 L 85.617188 62.265625 L 85.617188 64.480469 L 90.332031 64.480469 C 91.550781 64.488281 92.714844 64.996094 93.550781 65.886719 C 94.386719 66.78125 94.820312 67.976562 94.75 69.199219 C 94.75 71.9375 92.875 74.035156 90.332031 74.035156 L 87.90625 74.035156 L 87.90625 71.625 L 85.578125 71.625 L 85.578125 76.25 L 90.125 76.25 C 93.871094 76.113281 96.84375 73.023438 96.84375 69.257812 C 96.84375 65.492188 93.871094 62.402344 90.125 62.265625 Z M 90.160156 62.265625 "></path><path style=" stroke:none;fill-rule:nonzero;fill:rgb(21.176471%,21.176471%,21.176471%);fill-opacity:1;" d="M 85.570312 66.863281 L 87.90625 66.863281 L 87.90625 69.207031 L 85.570312 69.207031 Z M 85.570312 66.863281 "></path></g></svg> 