<svg xmlns="http://www.w3.org/2000/svg" viewBox="0 0 197.11 219.51"><defs><style>.cls-1{fill:#fff2c1;}.cls-2{fill:#f4d670;}.cls-3{fill:#00abe2;}.cls-4{fill:#00cf9d;}.cls-5{fill:#efc24e;}.cls-6{fill:#e9af24;}.cls-7{fill:#d80;}</style></defs><g id="Layer_1" data-name="Layer 1"><path class="cls-1" d="M98.55,214a20.65,20.65,0,0,1-10.32-2.77l-72.4-41.8A20.7,20.7,0,0,1,5.5,151.55V68A20.7,20.7,0,0,1,15.83,50.07l72.4-41.8a20.63,20.63,0,0,1,20.65,0l72.4,41.8A20.7,20.7,0,0,1,191.61,68v83.59a20.7,20.7,0,0,1-10.33,17.89l-72.4,41.8A20.66,20.66,0,0,1,98.55,214Z"/><path class="cls-2" d="M98.55,11a15.17,15.17,0,0,1,7.58,2l72.4,41.8A15.16,15.16,0,0,1,186.11,68v83.59a15.16,15.16,0,0,1-7.58,13.13l-72.4,41.8a15.15,15.15,0,0,1-15.15,0l-72.4-41.8A15.16,15.16,0,0,1,11,151.55V68a15.16,15.16,0,0,1,7.58-13.13L91,13a15.16,15.16,0,0,1,7.57-2m0-11A26.19,26.19,0,0,0,85.48,3.5L13.08,45.3A26.23,26.23,0,0,0,0,68v83.59a26.23,26.23,0,0,0,13.08,22.66L85.48,216a26.17,26.17,0,0,0,26.15,0l72.4-41.8a26.23,26.23,0,0,0,13.08-22.66V68A26.23,26.23,0,0,0,184,45.3L111.63,3.5A26.2,26.2,0,0,0,98.55,0Z"/><path class="cls-3" d="M122.23,56v22H74.87V122.4H58.42L27.5,144.65V79.94C27.5,66.7,38.93,56,53,56Z"/><path class="cls-4" d="M167.49,87.41c-3.23-5.63-9.85-9.49-17.5-9.49H122.24V97.63c0,.05,0,.09,0,.13v1.13c0,13-11.2,23.51-25,23.51H75c1.16,10.24,11,18.23,22.85,18.23h40.84l9.35,6.31,3.14,2.13,18.44,12.47V95.23A15.54,15.54,0,0,0,167.49,87.41Z"/><path class="cls-5" d="M89.81,56C75.57,62.36,61,72.61,51.19,85.73c-19,25.45-23.69,58.92-23.69,58.92V79.94C27.5,66.7,38.93,56,53,56Z"/><path class="cls-6" d="M169.61,122v39.51l-18.26-12.47-3.11-2.13C154.63,143.28,163.18,136.06,169.61,122Z"/><path class="cls-7" d="M122.23,98.89v-21H74.87V122.4H97.2C111,122.4,122.23,111.88,122.23,98.89Z"/></g></svg>