<svg xmlns="http://www.w3.org/2000/svg" viewBox="0 0 197.11 219.51"><defs><style>.cls-1{fill:#fff2c1;}.cls-2{fill:#f4d670;}.cls-3{fill:#efc24e;}.cls-4{fill:#e9af24;}.cls-5{fill:#d80;}.cls-6{fill:#ff576d;}.cls-7{fill:#00c272;}.cls-8{fill:#00abe2;}</style></defs><g id="Layer_1" data-name="Layer 1"><path class="cls-1" d="M98.55,214a20.65,20.65,0,0,1-10.32-2.77l-72.4-41.8A20.7,20.7,0,0,1,5.5,151.55V68A20.7,20.7,0,0,1,15.83,50.07l72.4-41.8a20.63,20.63,0,0,1,20.65,0l72.4,41.8A20.7,20.7,0,0,1,191.61,68v83.59a20.7,20.7,0,0,1-10.33,17.89l-72.4,41.8A20.66,20.66,0,0,1,98.55,214Z"/><path class="cls-2" d="M98.55,11a15.17,15.17,0,0,1,7.58,2l72.4,41.8A15.16,15.16,0,0,1,186.11,68v83.59a15.16,15.16,0,0,1-7.58,13.13l-72.4,41.8a15.15,15.15,0,0,1-15.15,0l-72.4-41.8A15.16,15.16,0,0,1,11,151.55V68a15.16,15.16,0,0,1,7.58-13.13L91,13a15.16,15.16,0,0,1,7.57-2m0-11A26.19,26.19,0,0,0,85.48,3.5L13.08,45.3A26.23,26.23,0,0,0,0,68v83.59a26.23,26.23,0,0,0,13.08,22.66L85.48,216a26.14,26.14,0,0,0,26.15,0L184,174.21a26.23,26.23,0,0,0,13.08-22.66V68A26.23,26.23,0,0,0,184,45.3L111.63,3.5A26.2,26.2,0,0,0,98.55,0Z"/><path class="cls-3" d="M166.61,77.12a4,4,0,0,0-3.68-2.42l-37.73-.19v-3l33.63.17a2.54,2.54,0,0,0,2.55-2.44,6.34,6.34,0,0,0-.17-1.7,6.59,6.59,0,0,0-6.14-5.1l-.54,0-29-.16v-3l21.06.11a1,1,0,0,0,.94-1.37,10.45,10.45,0,0,0-1.9-2.93,10.26,10.26,0,0,0-2.37-1.9,10.06,10.06,0,0,0-1.83-.83,8.1,8.1,0,0,0-1-.28c-.33-.08-.67-.14-1-.19a8.76,8.76,0,0,0-1-.09l-5.84-.18-2.28-.05-5.15-.15c-4.11-.12-8.76-.26-13.94-.47l-5.14-.21H106l-.94,0c-1.21,0-2.41-.06-3.6,0a81.49,81.49,0,0,0-14.91,1.45A56.76,56.76,0,0,0,60.09,66.24l24.39,42.12,7.3-4.89L76.6,81a1.35,1.35,0,0,1,.32-.26l1-.55a6.39,6.39,0,0,1,3.38-.74,6.86,6.86,0,0,1,1.61.27,6.53,6.53,0,0,1,3.86,3.2l4.25,8,4.48,8.44,3.09,8.27.53.21,8.71.66,9.55.35,9.08.34a6.59,6.59,0,0,0,6.8-6.29l0-1.18a1.26,1.26,0,0,0-1.25-1.31l-22.34-.12,0-3,45.46.24c2-.63,4.22-1.81,4.31-4.12v0l.09-2.63a1.91,1.91,0,0,0-1.89-2h-2.4l-30-.16,0-3,37.53.2a4.16,4.16,0,0,0,4.19-4l.08-1.58A7.42,7.42,0,0,0,166.61,77.12Zm-39.94,27.69-6.92-.26h-.07ZM161.92,83.5a2,2,0,0,1-.71.49,2,2,0,0,0,.71-.49,2.62,2.62,0,0,0,.72-1.41A2.62,2.62,0,0,1,161.92,83.5Z"/><path class="cls-4" d="M88.25,142.24a6.8,6.8,0,0,1,.29-2L101.66,122l-2.49-14.19-3.62-8.48L91.07,90.9l-4.25-8A6.53,6.53,0,0,0,83,79.67a6.73,6.73,0,0,0-5,.47l-1,.55a1.25,1.25,0,0,0-.5,1.74l11.09,19.39-2.61,1.49L62.33,63.84a4.29,4.29,0,0,0-5.72-1.66l0,0-2.32,1.24a1.9,1.9,0,0,0-.76,2.62l1.19,2.09L69.59,94.22,67,95.7,48.35,63.12a4.17,4.17,0,0,0-5.58-1.61l-1.41.73a7.24,7.24,0,0,0-2.37,2,4,4,0,0,0-.25,4.39l18.73,32.76-2.6,1.49L38.18,73.67a2.55,2.55,0,0,0-3.39-1,6.75,6.75,0,0,0-1.39,1,6.58,6.58,0,0,0-1.34,7.87l.25.48,14.41,25.2-2.6,1.49L33.67,90.44A1,1,0,0,0,32,90.32a10.3,10.3,0,0,0-1.84,8.11,8.24,8.24,0,0,0,.24,1c.1.32.21.64.34,1s.27.62.43.93c.8,1.5,1.72,3.21,2.78,5.14l1.09,2L37.5,113q2.93,5.42,6.57,12.29c.78,1.47,1.57,3,2.39,4.56l0,.1.45.82c.57,1.07,1.16,2.12,1.76,3.15,5.68,9.66,10.39,15,18.66,20.92M46.86,65.08a2.68,2.68,0,0,0-1.58.08,2.68,2.68,0,0,1,1.58-.08,2.33,2.33,0,0,1,.78.36A2.33,2.33,0,0,0,46.86,65.08ZM83,84.92,86.2,91l0,0Z"/><path class="cls-5" d="M159,95.37l0,0Z"/><path class="cls-5" d="M158.76,95.67Z"/><path class="cls-5" d="M144.35,142.72a57.67,57.67,0,0,0,10.88-45.35h0a10.24,10.24,0,0,1-1.43.1l-44.46-.23v3l22.34.12a1.25,1.25,0,0,1,1.25,1.31l0,1.18a6.35,6.35,0,0,1-1.05,3.3,6.84,6.84,0,0,1-1,1.25,6.48,6.48,0,0,1-4.7,1.74L117,108.8l-9.55-.35-8.34-.63v0l-6.61,5.78-7,6.56-6.61,6.23A6.47,6.47,0,0,0,76.88,131a7.18,7.18,0,0,0,.16,1.62,6.49,6.49,0,0,0,1.62,3.07l.81.86a1.26,1.26,0,0,0,1.81,0L97,120.73l2.13,2.12L67.1,155.1a4.28,4.28,0,0,0-.08,6l0,0,1.8,1.91a1.91,1.91,0,0,0,2.73,0l1.7-1.7L94.46,140l2.12,2.11L70.12,168.77a4.17,4.17,0,0,0-.07,5.81l1.08,1.16a7.41,7.41,0,0,0,2.4,1.7,4,4,0,0,0,4.44-.87l26.6-26.76,2.13,2.11L83,175.77a2.51,2.51,0,0,0-.14,3.43,6.23,6.23,0,0,0,1.42,1.17,6.57,6.57,0,0,0,7.94-.8l.4-.37,20.46-20.59,2.13,2.12-14.84,14.93a1,1,0,0,0,.32,1.63,10,10,0,0,0,6.43.34,9.69,9.69,0,0,0,1.88-.71c.3-.15.59-.32.88-.49s.56-.38.83-.59a9.72,9.72,0,0,0,.78-.66c1.24-1.17,2.64-2.52,4.22-4l1.64-1.59,3.72-3.57q4.46-4.28,10.11-9.61l3.75-3.51.09-.08c.23-.21.44-.44.67-.65.88-.84,1.74-1.68,2.57-2.53,2.16-2.24,4.2-4.51,6.09-6.88Z"/><polygon class="cls-5" points="159.1 95.17 159.1 95.17 159.1 95.18 159.1 95.17"/><path class="cls-5" d="M159.1,95.13v0C159.21,95,159.19,94.9,159.1,95.13Z"/><path class="cls-5" d="M146.11,140.41c.46-.62.9-1.25,1.33-1.88C147,139.16,146.57,139.79,146.11,140.41Z"/><path class="cls-5" d="M144.46,142.58c.48-.61.95-1.22,1.41-1.84C145.41,141.36,144.94,142,144.46,142.58Z"/><path class="cls-6" d="M54.68,68.15l1,1.81a57.82,57.82,0,0,1,6.43-6.38,4.28,4.28,0,0,0-5.54-1.4l0,0-2.32,1.24a1.9,1.9,0,0,0-.76,2.62Z"/><path class="cls-6" d="M47.1,83.23a57.66,57.66,0,0,1,6.58-10.78l-5.33-9.33a4.17,4.17,0,0,0-5.58-1.61l-1.41.73a7.24,7.24,0,0,0-2.37,2,4,4,0,0,0-.25,4.39Zm-.24-18.15a2.33,2.33,0,0,1,.78.36,2.33,2.33,0,0,0-.78-.36,2.68,2.68,0,0,0-1.58.08A2.68,2.68,0,0,1,46.86,65.08Z"/><path class="cls-6" d="M41.63,107.8c0-1.09,0-2.17.1-3.25L33.67,90.44A1,1,0,0,0,32,90.32a10.3,10.3,0,0,0-1.84,8.11,8.24,8.24,0,0,0,.24,1c.1.32.21.64.34,1s.27.62.43.93c.8,1.5,1.72,3.21,2.78,5.14l1.09,2L37.5,113q2.93,5.42,6.57,12.29c.24.45.48.92.72,1.38A57.93,57.93,0,0,1,41.63,107.8Z"/><path class="cls-6" d="M32.31,82l9.94,17.38a57.42,57.42,0,0,1,3.37-12.72l-7.44-13a2.55,2.55,0,0,0-3.39-1,6.75,6.75,0,0,0-1.39,1,6.58,6.58,0,0,0-1.34,7.87Z"/><path class="cls-6" d="M54.68,68.15,56,70.5a56.5,56.5,0,0,1,6.45-6.4l-.15-.26a4.29,4.29,0,0,0-5.72-1.66l0,0-2.32,1.24a1.9,1.9,0,0,0-.76,2.62Z"/><path class="cls-6" d="M42.26,107.61c0-.69,0-1.37.05-2L33.67,90.44A1,1,0,0,0,32,90.32a10.3,10.3,0,0,0-1.84,8.11,8.24,8.24,0,0,0,.24,1c.1.32.21.64.34,1s.27.62.43.93c.8,1.5,1.72,3.21,2.78,5.14l1.09,2L37.5,113q2.93,5.42,6.57,12.29c.78,1.47,1.57,3,2.39,4.56l0,.1.45.82c.44.83.9,1.63,1.36,2.43A56.71,56.71,0,0,1,42.26,107.61Z"/><path class="cls-6" d="M32.31,82l10.43,18.25a56.51,56.51,0,0,1,3.25-13L38.18,73.67a2.55,2.55,0,0,0-3.39-1,6.75,6.75,0,0,0-1.39,1,6.58,6.58,0,0,0-1.34,7.87Z"/><path class="cls-6" d="M47.45,83.85A56.91,56.91,0,0,1,54,73l-5.65-9.87a4.17,4.17,0,0,0-5.58-1.61l-1.41.73a7.24,7.24,0,0,0-2.37,2,4,4,0,0,0-.25,4.39Zm-.59-18.77a2.33,2.33,0,0,1,.78.36,2.33,2.33,0,0,0-.78-.36,2.68,2.68,0,0,0-1.58.08A2.68,2.68,0,0,1,46.86,65.08Z"/><path class="cls-7" d="M71.59,163l1.7-1.71,2-2a57.06,57.06,0,0,1-7.93-4.47l-.28.28a4.28,4.28,0,0,0-.08,6l0,0L68.87,163A1.9,1.9,0,0,0,71.59,163Z"/><path class="cls-7" d="M99.21,164.55c-1.63,0-3.26-.07-4.86-.21L83,175.77a2.51,2.51,0,0,0-.14,3.43,6.23,6.23,0,0,0,1.42,1.17,6.57,6.57,0,0,0,7.94-.8l.4-.37,15.21-15.31A57,57,0,0,1,99.21,164.55Z"/><path class="cls-7" d="M78.27,160.57l-8.15,8.2a4.17,4.17,0,0,0-.07,5.81l1.08,1.16a7.41,7.41,0,0,0,2.4,1.7,4,4,0,0,0,4.44-.87l12.6-12.68A56.38,56.38,0,0,1,78.27,160.57Z"/><path class="cls-7" d="M144.35,142.72a59.92,59.92,0,0,1-31.25,20.12l-12.73,12.82a1,1,0,0,0,.32,1.63,10,10,0,0,0,6.43.34,9.69,9.69,0,0,0,1.88-.71c.3-.15.59-.32.88-.49s.56-.38.83-.59a9.72,9.72,0,0,0,.78-.66c1.24-1.17,2.64-2.52,4.22-4l1.64-1.59,3.72-3.57q4.46-4.28,10.11-9.61l3.75-3.51.09-.08c.23-.21.44-.44.67-.65.88-.84,1.74-1.68,2.57-2.53,2.16-2.24,4.2-4.5,6.09-6.88"/><path class="cls-7" d="M159.1,95.13v0C159.21,95,159.19,94.9,159.1,95.13Z"/><path class="cls-8" d="M129.83,59.29l16.75.08a1,1,0,0,0,.94-1.37,10.45,10.45,0,0,0-1.9-2.93,10.26,10.26,0,0,0-2.37-1.9,10.06,10.06,0,0,0-1.83-.83,8.1,8.1,0,0,0-1-.28c-.33-.08-.67-.14-1-.19a8.76,8.76,0,0,0-1-.09l-5.84-.18-2.28-.05-5.15-.15c-4.11-.12-8.76-.26-13.94-.47l-5.14-.21H106l-.81,0A57.14,57.14,0,0,1,129.83,59.29Z"/><path class="cls-8" d="M143.7,71.6l15.14.08a2.54,2.54,0,0,0,2.55-2.44,6.34,6.34,0,0,0-.17-1.7,6.59,6.59,0,0,0-6.14-5.1l-.54,0-20.39-.11A57.9,57.9,0,0,1,143.7,71.6Z"/><path class="cls-8" d="M166.61,77.12a4,4,0,0,0-3.68-2.42L146,74.61a57.53,57.53,0,0,1,6.17,11.1l10.71.06a4.16,4.16,0,0,0,4.19-4l.08-1.58A7.42,7.42,0,0,0,166.61,77.12Z"/><path class="cls-8" d="M157.75,88.74h-4.44a56.88,56.88,0,0,1,2.31,8.66c1.9-.65,3.85-1.83,3.93-4v0l.09-2.63A1.91,1.91,0,0,0,157.75,88.74Z"/></g></svg>