<?xml version="1.0" encoding="UTF-8"?>
<svg xmlns="http://www.w3.org/2000/svg" viewBox="0 0 167.01 181.01"><g fill="#50c6df"><path d="M48.31,56.51l6.45-9.94,6.74-10.39,5.42,11.14,11.45,23.51c1.68-.33,3.41-.5,5.19-.5,1.57,0,3.14,.14,4.68,.41,1.71-4.46,4.43-8.5,8.02-11.8,5.79-5.34,13.32-8.28,21.2-8.28,1.8,0,3.57,.15,5.29,.45-4.56-17.39-20.38-30.22-39.2-30.22s-33.43,11.88-38.63,28.26l3.39,7.36Z"/><rect x="80.05" width="7" height="14"/><rect x="59.23" y="4.14" width="7" height="14" transform="translate(.51 24.85) rotate(-22.5)"/><rect x="41.57" y="15.94" width="7" height="14" transform="translate(-3.02 38.59) rotate(-45)"/><rect x="126.83" y="37.09" width="14" height="7" transform="translate(-5.35 54.3) rotate(-22.5)"/><rect x="115.03" y="19.44" width="14" height="7" transform="translate(19.52 93.01) rotate(-45)"/><rect x="97.38" y="7.64" width="14" height="7" transform="translate(54.13 103.31) rotate(-67.49)"/><path d="M56.7,101.28c-.18-1.25-.27-2.53-.27-3.83,0-10.7,6.23-19.97,15.26-24.38l-11.06-22.69-13.37,20.61L29.96,33.36C11.65,48.69,0,71.71,0,97.45c0,3.88,.27,7.7,.8,11.43,18.78-12.4,37.48-12.11,55.9-7.6Z"/><path d="M144.29,80.73c-.86,0-1.71,.06-2.55,.15-.57-12.92-11.22-23.22-24.28-23.22s-23.12,9.74-24.2,22.17c-2.88-1.59-6.18-2.5-9.7-2.5-.66,0-1.32,.03-1.97,.09-1.23,.12-2.42,.35-3.57,.68-1.14,.33-2.23,.75-3.28,1.25-6.7,3.28-11.31,10.15-11.31,18.1,0,2.06,.31,4.05,.88,5.92,6.87,2.06,13.7,4.55,20.47,7.02,27.75,10.12,53.96,19.69,80.3,.46l1.08-.79c.44-2.85,.72-5.76,.85-8.7-1.1-11.57-10.85-20.63-22.72-20.63Z"/><path d="M84.26,117.65s-.02-.07-.03-.11c-.08,0-.16,.01-.24,.01,.04,.02,.07,.03,.1,.04-.57-.21-1.14-.42-1.71-.62-27.62-10.08-53.72-19.59-79.94-.71,.04-.03,.08-.06,.13-.09l-.45-.04c.02,.1,.05,.21,.07,.31h0c1.09,4.67,2.54,9.2,4.37,13.53,26.46-13.96,52.73-4.41,78.22,4.89,24.04,8.77,46.92,17.11,69.74,6.68,4.13-6.63,7.35-13.89,9.5-21.59-10.75,6.51-21.48,8.99-32.14,8.99-16.07,0-31.99-5.58-47.62-11.28Z"/><path d="M82.38,141.44c-25.12-9.17-48.98-17.87-72.82-5.17,2.5,4.76,5.45,9.25,8.79,13.41,22.47-6.37,44.73,1.73,66.43,9.65,13.45,4.91,26.54,9.67,39.45,11.1,8.75-4.89,16.53-11.31,22.98-18.9-5.13,1.3-10.24,1.87-15.34,1.87-16.71,0-33.26-6.04-49.5-11.96Z"/><path d="M23.55,155.6c6.85,7.06,14.93,12.93,23.91,17.23,8.81,4.23,18.48,6.96,28.67,7.85,2.44,.22,4.92,.33,7.42,.33,10.4,0,20.36-1.9,29.54-5.38-10.33-2.29-20.58-6.03-30.71-9.72-20.21-7.37-39.61-14.45-58.83-10.31Z"/><path d="M.79,108.89c.02,.13,.04,.25,.06,.38-.02-.13-.04-.26-.05-.39,0,.01,0,.01,0,.01Z"/></g></svg>