<svg xmlns="http://www.w3.org/2000/svg" viewBox="0 0 197.11 219.51"><defs><style>.cls-1{fill:#fff2c1;}.cls-2{fill:#f4d670;}.cls-3{fill:#f9e88f;}.cls-4{fill:#e9af24;}.cls-5{fill:#efc24e;}.cls-6{fill:#ff8594;}.cls-7{fill:#ff576d;}.cls-8{fill:#e49c00;}.cls-9{fill:#0080bb;}</style></defs><g id="Layer_1" data-name="Layer 1"><path class="cls-1" d="M98.55,214a20.65,20.65,0,0,1-10.32-2.77l-72.4-41.8A20.72,20.72,0,0,1,5.5,151.55V68A20.7,20.7,0,0,1,15.83,50.07l72.4-41.8a20.63,20.63,0,0,1,20.65,0l72.4,41.8A20.7,20.7,0,0,1,191.61,68v83.59a20.72,20.72,0,0,1-10.33,17.89l-72.4,41.8A20.66,20.66,0,0,1,98.55,214Z"/><path class="cls-2" d="M98.55,11a15.17,15.17,0,0,1,7.58,2l72.4,41.8A15.16,15.16,0,0,1,186.11,68v83.59a15.16,15.16,0,0,1-7.58,13.13l-72.4,41.8a15.15,15.15,0,0,1-15.15,0l-72.4-41.8A15.16,15.16,0,0,1,11,151.55V68a15.16,15.16,0,0,1,7.58-13.13L91,13a15.16,15.16,0,0,1,7.57-2m0-11A26.19,26.19,0,0,0,85.48,3.5L13.08,45.3A26.23,26.23,0,0,0,0,68v83.59a26.23,26.23,0,0,0,13.08,22.66L85.48,216a26.17,26.17,0,0,0,26.15,0l72.4-41.8a26.23,26.23,0,0,0,13.08-22.66V68A26.23,26.23,0,0,0,184,45.3L111.63,3.5A26.2,26.2,0,0,0,98.55,0Z"/><path class="cls-3" d="M139.91,98.53A221.68,221.68,0,0,1,56.57,145.6c-12.57,3.79-23.07,4.92-29.87,6V86.76H151.77C147.92,90.94,144,94.86,139.91,98.53Z"/><path class="cls-2" d="M139.91,98.53A221.68,221.68,0,0,1,56.57,145.6V98.53Z"/><path class="cls-4" d="M140.22,136.55l-15.66-3.42,7.59,12.47H56.57a221.68,221.68,0,0,0,83.34-47.07h.31Z"/><path class="cls-5" d="M170.1,86.76v70.3H150.74L152.4,153l13-10.94L145,137.6l-4.77-1v-38h-.31c4-3.67,8-7.59,11.86-11.77Z"/><path class="cls-6" d="M165.32,63.58H31.48a4.75,4.75,0,0,0-4.78,4.71V86.76H170.1V68.29A4.75,4.75,0,0,0,165.32,63.58Z"/><path class="cls-7" d="M168.88,65.18a185.58,185.58,0,0,1-17.11,21.58H170.1V68.29A4.62,4.62,0,0,0,168.88,65.18Z"/><circle class="cls-2" cx="41.52" cy="76.74" r="5.41"/><circle class="cls-3" cx="63.17" cy="76.74" r="5.41"/><rect class="cls-4" x="26.7" y="145.6" width="29.87" height="11.47"/><path class="cls-8" d="M170.1,157.06H26.7v-5.48c6.8-1.06,17.3-2.19,29.87-6H170.1Z"/><polyline class="cls-9" points="146.78 170.35 139.52 158.23 135.53 151.58 132.22 146.05 124.28 132.81 140.66 136.44 145.65 137.55 167.02 142.29 153.4 153.91"/></g></svg>